%TF.GenerationSoftware,KiCad,Pcbnew,(5.0.0-3-g5ebb6b6)*%
%TF.CreationDate,2019-04-29T20:19:19+01:00*%
%TF.ProjectId,RFM69HCW-868-S2,52464D36394843572D3836382D53322E,1*%
%TF.SameCoordinates,Original*%
%TF.FileFunction,Legend,Top*%
%TF.FilePolarity,Positive*%
%FSLAX46Y46*%
G04 Gerber Fmt 4.6, Leading zero omitted, Abs format (unit mm)*
G04 Created by KiCad (PCBNEW (5.0.0-3-g5ebb6b6)) date Monday, 29 April 2019 at 20:19:19*
%MOMM*%
%LPD*%
G01*
G04 APERTURE LIST*
%ADD10C,0.100000*%
%ADD11C,0.150000*%
%ADD12C,0.300000*%
%ADD13C,0.400000*%
%ADD14C,0.203200*%
%ADD15C,0.120000*%
%ADD16C,0.127000*%
%ADD17C,0.152400*%
%ADD18R,3.202940X1.402080*%
%ADD19R,1.000000X1.800000*%
%ADD20O,1.700000X1.700000*%
%ADD21R,1.700000X1.700000*%
%ADD22C,6.200000*%
%ADD23R,0.750000X0.800000*%
%ADD24R,0.800000X0.750000*%
%ADD25R,0.400000X0.600000*%
G04 APERTURE END LIST*
D10*
D11*
X177002200Y-166007200D02*
X177002200Y-198007200D01*
X285002200Y-198007200D01*
X285002200Y-166007200D01*
X177002200Y-166007200D01*
D10*
D11*
X10000000Y-10000000D02*
X10000000Y-200007200D01*
X287002200Y-200007200D01*
X287002200Y-10000000D01*
X10000000Y-10000000D01*
D10*
D11*
X12000000Y-12000000D02*
X12000000Y-198007200D01*
X285002200Y-198007200D01*
X285002200Y-12000000D01*
X12000000Y-12000000D01*
D10*
D11*
X60000000Y-12000000D02*
X60000000Y-10000000D01*
D10*
D11*
X110000000Y-12000000D02*
X110000000Y-10000000D01*
D10*
D11*
X160000000Y-12000000D02*
X160000000Y-10000000D01*
D10*
D11*
X210000000Y-12000000D02*
X210000000Y-10000000D01*
D10*
D11*
X260000000Y-12000000D02*
X260000000Y-10000000D01*
D10*
D11*
X36065476Y-11588095D02*
X35322619Y-11588095D01*
X35694047Y-11588095D02*
X35694047Y-10288095D01*
X35570238Y-10473809D01*
X35446428Y-10597619D01*
X35322619Y-10659523D01*
D10*
D11*
X85322619Y-10411904D02*
X85384523Y-10350000D01*
X85508333Y-10288095D01*
X85817857Y-10288095D01*
X85941666Y-10350000D01*
X86003571Y-10411904D01*
X86065476Y-10535714D01*
X86065476Y-10659523D01*
X86003571Y-10845238D01*
X85260714Y-11588095D01*
X86065476Y-11588095D01*
D10*
D11*
X135260714Y-10288095D02*
X136065476Y-10288095D01*
X135632142Y-10783333D01*
X135817857Y-10783333D01*
X135941666Y-10845238D01*
X136003571Y-10907142D01*
X136065476Y-11030952D01*
X136065476Y-11340476D01*
X136003571Y-11464285D01*
X135941666Y-11526190D01*
X135817857Y-11588095D01*
X135446428Y-11588095D01*
X135322619Y-11526190D01*
X135260714Y-11464285D01*
D10*
D11*
X185941666Y-10721428D02*
X185941666Y-11588095D01*
X185632142Y-10226190D02*
X185322619Y-11154761D01*
X186127380Y-11154761D01*
D10*
D11*
X236003571Y-10288095D02*
X235384523Y-10288095D01*
X235322619Y-10907142D01*
X235384523Y-10845238D01*
X235508333Y-10783333D01*
X235817857Y-10783333D01*
X235941666Y-10845238D01*
X236003571Y-10907142D01*
X236065476Y-11030952D01*
X236065476Y-11340476D01*
X236003571Y-11464285D01*
X235941666Y-11526190D01*
X235817857Y-11588095D01*
X235508333Y-11588095D01*
X235384523Y-11526190D01*
X235322619Y-11464285D01*
D10*
D11*
X285941666Y-10288095D02*
X285694047Y-10288095D01*
X285570238Y-10350000D01*
X285508333Y-10411904D01*
X285384523Y-10597619D01*
X285322619Y-10845238D01*
X285322619Y-11340476D01*
X285384523Y-11464285D01*
X285446428Y-11526190D01*
X285570238Y-11588095D01*
X285817857Y-11588095D01*
X285941666Y-11526190D01*
X286003571Y-11464285D01*
X286065476Y-11340476D01*
X286065476Y-11030952D01*
X286003571Y-10907142D01*
X285941666Y-10845238D01*
X285817857Y-10783333D01*
X285570238Y-10783333D01*
X285446428Y-10845238D01*
X285384523Y-10907142D01*
X285322619Y-11030952D01*
D10*
D11*
X60000000Y-198007200D02*
X60000000Y-200007200D01*
D10*
D11*
X110000000Y-198007200D02*
X110000000Y-200007200D01*
D10*
D11*
X160000000Y-198007200D02*
X160000000Y-200007200D01*
D10*
D11*
X210000000Y-198007200D02*
X210000000Y-200007200D01*
D10*
D11*
X260000000Y-198007200D02*
X260000000Y-200007200D01*
D10*
D11*
X36065476Y-199595295D02*
X35322619Y-199595295D01*
X35694047Y-199595295D02*
X35694047Y-198295295D01*
X35570238Y-198481009D01*
X35446428Y-198604819D01*
X35322619Y-198666723D01*
D10*
D11*
X85322619Y-198419104D02*
X85384523Y-198357200D01*
X85508333Y-198295295D01*
X85817857Y-198295295D01*
X85941666Y-198357200D01*
X86003571Y-198419104D01*
X86065476Y-198542914D01*
X86065476Y-198666723D01*
X86003571Y-198852438D01*
X85260714Y-199595295D01*
X86065476Y-199595295D01*
D10*
D11*
X135260714Y-198295295D02*
X136065476Y-198295295D01*
X135632142Y-198790533D01*
X135817857Y-198790533D01*
X135941666Y-198852438D01*
X136003571Y-198914342D01*
X136065476Y-199038152D01*
X136065476Y-199347676D01*
X136003571Y-199471485D01*
X135941666Y-199533390D01*
X135817857Y-199595295D01*
X135446428Y-199595295D01*
X135322619Y-199533390D01*
X135260714Y-199471485D01*
D10*
D11*
X185941666Y-198728628D02*
X185941666Y-199595295D01*
X185632142Y-198233390D02*
X185322619Y-199161961D01*
X186127380Y-199161961D01*
D10*
D11*
X236003571Y-198295295D02*
X235384523Y-198295295D01*
X235322619Y-198914342D01*
X235384523Y-198852438D01*
X235508333Y-198790533D01*
X235817857Y-198790533D01*
X235941666Y-198852438D01*
X236003571Y-198914342D01*
X236065476Y-199038152D01*
X236065476Y-199347676D01*
X236003571Y-199471485D01*
X235941666Y-199533390D01*
X235817857Y-199595295D01*
X235508333Y-199595295D01*
X235384523Y-199533390D01*
X235322619Y-199471485D01*
D10*
D11*
X285941666Y-198295295D02*
X285694047Y-198295295D01*
X285570238Y-198357200D01*
X285508333Y-198419104D01*
X285384523Y-198604819D01*
X285322619Y-198852438D01*
X285322619Y-199347676D01*
X285384523Y-199471485D01*
X285446428Y-199533390D01*
X285570238Y-199595295D01*
X285817857Y-199595295D01*
X285941666Y-199533390D01*
X286003571Y-199471485D01*
X286065476Y-199347676D01*
X286065476Y-199038152D01*
X286003571Y-198914342D01*
X285941666Y-198852438D01*
X285817857Y-198790533D01*
X285570238Y-198790533D01*
X285446428Y-198852438D01*
X285384523Y-198914342D01*
X285322619Y-199038152D01*
D10*
D11*
X10000000Y-60000000D02*
X12000000Y-60000000D01*
D10*
D11*
X10000000Y-110000000D02*
X12000000Y-110000000D01*
D10*
D11*
X10000000Y-160000000D02*
X12000000Y-160000000D01*
D10*
D11*
X10690476Y-35216666D02*
X11309523Y-35216666D01*
X10566666Y-35588095D02*
X11000000Y-34288095D01*
X11433333Y-35588095D01*
D10*
D11*
X11092857Y-84907142D02*
X11278571Y-84969047D01*
X11340476Y-85030952D01*
X11402380Y-85154761D01*
X11402380Y-85340476D01*
X11340476Y-85464285D01*
X11278571Y-85526190D01*
X11154761Y-85588095D01*
X10659523Y-85588095D01*
X10659523Y-84288095D01*
X11092857Y-84288095D01*
X11216666Y-84350000D01*
X11278571Y-84411904D01*
X11340476Y-84535714D01*
X11340476Y-84659523D01*
X11278571Y-84783333D01*
X11216666Y-84845238D01*
X11092857Y-84907142D01*
X10659523Y-84907142D01*
D10*
D11*
X11402380Y-135464285D02*
X11340476Y-135526190D01*
X11154761Y-135588095D01*
X11030952Y-135588095D01*
X10845238Y-135526190D01*
X10721428Y-135402380D01*
X10659523Y-135278571D01*
X10597619Y-135030952D01*
X10597619Y-134845238D01*
X10659523Y-134597619D01*
X10721428Y-134473809D01*
X10845238Y-134350000D01*
X11030952Y-134288095D01*
X11154761Y-134288095D01*
X11340476Y-134350000D01*
X11402380Y-134411904D01*
D10*
D11*
X10659523Y-185588095D02*
X10659523Y-184288095D01*
X10969047Y-184288095D01*
X11154761Y-184350000D01*
X11278571Y-184473809D01*
X11340476Y-184597619D01*
X11402380Y-184845238D01*
X11402380Y-185030952D01*
X11340476Y-185278571D01*
X11278571Y-185402380D01*
X11154761Y-185526190D01*
X10969047Y-185588095D01*
X10659523Y-185588095D01*
D10*
D11*
X287002200Y-60000000D02*
X285002200Y-60000000D01*
D10*
D11*
X287002200Y-110000000D02*
X285002200Y-110000000D01*
D10*
D11*
X287002200Y-160000000D02*
X285002200Y-160000000D01*
D10*
D11*
X285692676Y-35216666D02*
X286311723Y-35216666D01*
X285568866Y-35588095D02*
X286002200Y-34288095D01*
X286435533Y-35588095D01*
D10*
D11*
X286095057Y-84907142D02*
X286280771Y-84969047D01*
X286342676Y-85030952D01*
X286404580Y-85154761D01*
X286404580Y-85340476D01*
X286342676Y-85464285D01*
X286280771Y-85526190D01*
X286156961Y-85588095D01*
X285661723Y-85588095D01*
X285661723Y-84288095D01*
X286095057Y-84288095D01*
X286218866Y-84350000D01*
X286280771Y-84411904D01*
X286342676Y-84535714D01*
X286342676Y-84659523D01*
X286280771Y-84783333D01*
X286218866Y-84845238D01*
X286095057Y-84907142D01*
X285661723Y-84907142D01*
D10*
D11*
X286404580Y-135464285D02*
X286342676Y-135526190D01*
X286156961Y-135588095D01*
X286033152Y-135588095D01*
X285847438Y-135526190D01*
X285723628Y-135402380D01*
X285661723Y-135278571D01*
X285599819Y-135030952D01*
X285599819Y-134845238D01*
X285661723Y-134597619D01*
X285723628Y-134473809D01*
X285847438Y-134350000D01*
X286033152Y-134288095D01*
X286156961Y-134288095D01*
X286342676Y-134350000D01*
X286404580Y-134411904D01*
D10*
D11*
X285661723Y-185588095D02*
X285661723Y-184288095D01*
X285971247Y-184288095D01*
X286156961Y-184350000D01*
X286280771Y-184473809D01*
X286342676Y-184597619D01*
X286404580Y-184845238D01*
X286404580Y-185030952D01*
X286342676Y-185278571D01*
X286280771Y-185402380D01*
X286156961Y-185526190D01*
X285971247Y-185588095D01*
X285661723Y-185588095D01*
D10*
D11*
X200434342Y-193785771D02*
X200434342Y-192285771D01*
X200791485Y-192285771D01*
X201005771Y-192357200D01*
X201148628Y-192500057D01*
X201220057Y-192642914D01*
X201291485Y-192928628D01*
X201291485Y-193142914D01*
X201220057Y-193428628D01*
X201148628Y-193571485D01*
X201005771Y-193714342D01*
X200791485Y-193785771D01*
X200434342Y-193785771D01*
X202577200Y-193785771D02*
X202577200Y-193000057D01*
X202505771Y-192857200D01*
X202362914Y-192785771D01*
X202077200Y-192785771D01*
X201934342Y-192857200D01*
X202577200Y-193714342D02*
X202434342Y-193785771D01*
X202077200Y-193785771D01*
X201934342Y-193714342D01*
X201862914Y-193571485D01*
X201862914Y-193428628D01*
X201934342Y-193285771D01*
X202077200Y-193214342D01*
X202434342Y-193214342D01*
X202577200Y-193142914D01*
X203077200Y-192785771D02*
X203648628Y-192785771D01*
X203291485Y-192285771D02*
X203291485Y-193571485D01*
X203362914Y-193714342D01*
X203505771Y-193785771D01*
X203648628Y-193785771D01*
X204720057Y-193714342D02*
X204577200Y-193785771D01*
X204291485Y-193785771D01*
X204148628Y-193714342D01*
X204077200Y-193571485D01*
X204077200Y-193000057D01*
X204148628Y-192857200D01*
X204291485Y-192785771D01*
X204577200Y-192785771D01*
X204720057Y-192857200D01*
X204791485Y-193000057D01*
X204791485Y-193142914D01*
X204077200Y-193285771D01*
X205434342Y-193642914D02*
X205505771Y-193714342D01*
X205434342Y-193785771D01*
X205362914Y-193714342D01*
X205434342Y-193642914D01*
X205434342Y-193785771D01*
X205434342Y-192857200D02*
X205505771Y-192928628D01*
X205434342Y-193000057D01*
X205362914Y-192928628D01*
X205434342Y-192857200D01*
X205434342Y-193000057D01*
X207220057Y-192428628D02*
X207291485Y-192357200D01*
X207434342Y-192285771D01*
X207791485Y-192285771D01*
X207934342Y-192357200D01*
X208005771Y-192428628D01*
X208077200Y-192571485D01*
X208077200Y-192714342D01*
X208005771Y-192928628D01*
X207148628Y-193785771D01*
X208077200Y-193785771D01*
X209005771Y-192285771D02*
X209148628Y-192285771D01*
X209291485Y-192357200D01*
X209362914Y-192428628D01*
X209434342Y-192571485D01*
X209505771Y-192857200D01*
X209505771Y-193214342D01*
X209434342Y-193500057D01*
X209362914Y-193642914D01*
X209291485Y-193714342D01*
X209148628Y-193785771D01*
X209005771Y-193785771D01*
X208862914Y-193714342D01*
X208791485Y-193642914D01*
X208720057Y-193500057D01*
X208648628Y-193214342D01*
X208648628Y-192857200D01*
X208720057Y-192571485D01*
X208791485Y-192428628D01*
X208862914Y-192357200D01*
X209005771Y-192285771D01*
X210934342Y-193785771D02*
X210077200Y-193785771D01*
X210505771Y-193785771D02*
X210505771Y-192285771D01*
X210362914Y-192500057D01*
X210220057Y-192642914D01*
X210077200Y-192714342D01*
X211648628Y-193785771D02*
X211934342Y-193785771D01*
X212077200Y-193714342D01*
X212148628Y-193642914D01*
X212291485Y-193428628D01*
X212362914Y-193142914D01*
X212362914Y-192571485D01*
X212291485Y-192428628D01*
X212220057Y-192357200D01*
X212077200Y-192285771D01*
X211791485Y-192285771D01*
X211648628Y-192357200D01*
X211577200Y-192428628D01*
X211505771Y-192571485D01*
X211505771Y-192928628D01*
X211577200Y-193071485D01*
X211648628Y-193142914D01*
X211791485Y-193214342D01*
X212077200Y-193214342D01*
X212220057Y-193142914D01*
X212291485Y-193071485D01*
X212362914Y-192928628D01*
X213005771Y-193214342D02*
X214148628Y-193214342D01*
X215148628Y-192285771D02*
X215291485Y-192285771D01*
X215434342Y-192357200D01*
X215505771Y-192428628D01*
X215577200Y-192571485D01*
X215648628Y-192857200D01*
X215648628Y-193214342D01*
X215577200Y-193500057D01*
X215505771Y-193642914D01*
X215434342Y-193714342D01*
X215291485Y-193785771D01*
X215148628Y-193785771D01*
X215005771Y-193714342D01*
X214934342Y-193642914D01*
X214862914Y-193500057D01*
X214791485Y-193214342D01*
X214791485Y-192857200D01*
X214862914Y-192571485D01*
X214934342Y-192428628D01*
X215005771Y-192357200D01*
X215148628Y-192285771D01*
X216934342Y-192785771D02*
X216934342Y-193785771D01*
X216577200Y-192214342D02*
X216220057Y-193285771D01*
X217148628Y-193285771D01*
X217720057Y-193214342D02*
X218862914Y-193214342D01*
X219505771Y-192428628D02*
X219577200Y-192357200D01*
X219720057Y-192285771D01*
X220077200Y-192285771D01*
X220220057Y-192357200D01*
X220291485Y-192428628D01*
X220362914Y-192571485D01*
X220362914Y-192714342D01*
X220291485Y-192928628D01*
X219434342Y-193785771D01*
X220362914Y-193785771D01*
X221077200Y-193785771D02*
X221362914Y-193785771D01*
X221505771Y-193714342D01*
X221577200Y-193642914D01*
X221720057Y-193428628D01*
X221791485Y-193142914D01*
X221791485Y-192571485D01*
X221720057Y-192428628D01*
X221648628Y-192357200D01*
X221505771Y-192285771D01*
X221220057Y-192285771D01*
X221077200Y-192357200D01*
X221005771Y-192428628D01*
X220934342Y-192571485D01*
X220934342Y-192928628D01*
X221005771Y-193071485D01*
X221077200Y-193142914D01*
X221220057Y-193214342D01*
X221505771Y-193214342D01*
X221648628Y-193142914D01*
X221720057Y-193071485D01*
X221791485Y-192928628D01*
D10*
D11*
X177002200Y-194507200D02*
X285002200Y-194507200D01*
D10*
D11*
X178434342Y-196585771D02*
X178434342Y-195085771D01*
X179291485Y-196585771D02*
X178648628Y-195728628D01*
X179291485Y-195085771D02*
X178434342Y-195942914D01*
X179934342Y-196585771D02*
X179934342Y-195585771D01*
X179934342Y-195085771D02*
X179862914Y-195157200D01*
X179934342Y-195228628D01*
X180005771Y-195157200D01*
X179934342Y-195085771D01*
X179934342Y-195228628D01*
X181505771Y-196442914D02*
X181434342Y-196514342D01*
X181220057Y-196585771D01*
X181077200Y-196585771D01*
X180862914Y-196514342D01*
X180720057Y-196371485D01*
X180648628Y-196228628D01*
X180577200Y-195942914D01*
X180577200Y-195728628D01*
X180648628Y-195442914D01*
X180720057Y-195300057D01*
X180862914Y-195157200D01*
X181077200Y-195085771D01*
X181220057Y-195085771D01*
X181434342Y-195157200D01*
X181505771Y-195228628D01*
X182791485Y-196585771D02*
X182791485Y-195800057D01*
X182720057Y-195657200D01*
X182577200Y-195585771D01*
X182291485Y-195585771D01*
X182148628Y-195657200D01*
X182791485Y-196514342D02*
X182648628Y-196585771D01*
X182291485Y-196585771D01*
X182148628Y-196514342D01*
X182077200Y-196371485D01*
X182077200Y-196228628D01*
X182148628Y-196085771D01*
X182291485Y-196014342D01*
X182648628Y-196014342D01*
X182791485Y-195942914D01*
X184148628Y-196585771D02*
X184148628Y-195085771D01*
X184148628Y-196514342D02*
X184005771Y-196585771D01*
X183720057Y-196585771D01*
X183577200Y-196514342D01*
X183505771Y-196442914D01*
X183434342Y-196300057D01*
X183434342Y-195871485D01*
X183505771Y-195728628D01*
X183577200Y-195657200D01*
X183720057Y-195585771D01*
X184005771Y-195585771D01*
X184148628Y-195657200D01*
X186005771Y-195800057D02*
X186505771Y-195800057D01*
X186720057Y-196585771D02*
X186005771Y-196585771D01*
X186005771Y-195085771D01*
X186720057Y-195085771D01*
X187362914Y-196442914D02*
X187434342Y-196514342D01*
X187362914Y-196585771D01*
X187291485Y-196514342D01*
X187362914Y-196442914D01*
X187362914Y-196585771D01*
X188077200Y-196585771D02*
X188077200Y-195085771D01*
X188434342Y-195085771D01*
X188648628Y-195157200D01*
X188791485Y-195300057D01*
X188862914Y-195442914D01*
X188934342Y-195728628D01*
X188934342Y-195942914D01*
X188862914Y-196228628D01*
X188791485Y-196371485D01*
X188648628Y-196514342D01*
X188434342Y-196585771D01*
X188077200Y-196585771D01*
X189577200Y-196442914D02*
X189648628Y-196514342D01*
X189577200Y-196585771D01*
X189505771Y-196514342D01*
X189577200Y-196442914D01*
X189577200Y-196585771D01*
X190220057Y-196157200D02*
X190934342Y-196157200D01*
X190077200Y-196585771D02*
X190577200Y-195085771D01*
X191077200Y-196585771D01*
X191577200Y-196442914D02*
X191648628Y-196514342D01*
X191577200Y-196585771D01*
X191505771Y-196514342D01*
X191577200Y-196442914D01*
X191577200Y-196585771D01*
X194577200Y-195585771D02*
X194577200Y-197085771D01*
X194577200Y-195657200D02*
X194720057Y-195585771D01*
X195005771Y-195585771D01*
X195148628Y-195657200D01*
X195220057Y-195728628D01*
X195291485Y-195871485D01*
X195291485Y-196300057D01*
X195220057Y-196442914D01*
X195148628Y-196514342D01*
X195005771Y-196585771D01*
X194720057Y-196585771D01*
X194577200Y-196514342D01*
X196577200Y-196514342D02*
X196434342Y-196585771D01*
X196148628Y-196585771D01*
X196005771Y-196514342D01*
X195934342Y-196442914D01*
X195862914Y-196300057D01*
X195862914Y-195871485D01*
X195934342Y-195728628D01*
X196005771Y-195657200D01*
X196148628Y-195585771D01*
X196434342Y-195585771D01*
X196577200Y-195657200D01*
X197220057Y-196585771D02*
X197220057Y-195085771D01*
X197220057Y-195657200D02*
X197362914Y-195585771D01*
X197648628Y-195585771D01*
X197791485Y-195657200D01*
X197862914Y-195728628D01*
X197934342Y-195871485D01*
X197934342Y-196300057D01*
X197862914Y-196442914D01*
X197791485Y-196514342D01*
X197648628Y-196585771D01*
X197362914Y-196585771D01*
X197220057Y-196514342D01*
X198577200Y-195585771D02*
X198577200Y-196585771D01*
X198577200Y-195728628D02*
X198648628Y-195657200D01*
X198791485Y-195585771D01*
X199005771Y-195585771D01*
X199148628Y-195657200D01*
X199220057Y-195800057D01*
X199220057Y-196585771D01*
X200505771Y-196514342D02*
X200362914Y-196585771D01*
X200077200Y-196585771D01*
X199934342Y-196514342D01*
X199862914Y-196371485D01*
X199862914Y-195800057D01*
X199934342Y-195657200D01*
X200077200Y-195585771D01*
X200362914Y-195585771D01*
X200505771Y-195657200D01*
X200577200Y-195800057D01*
X200577200Y-195942914D01*
X199862914Y-196085771D01*
X201077200Y-195585771D02*
X201362914Y-196585771D01*
X201648628Y-195871485D01*
X201934342Y-196585771D01*
X202220057Y-195585771D01*
X204362914Y-197157200D02*
X204291485Y-197085771D01*
X204148628Y-196871485D01*
X204077200Y-196728628D01*
X204005771Y-196514342D01*
X203934342Y-196157200D01*
X203934342Y-195871485D01*
X204005771Y-195514342D01*
X204077200Y-195300057D01*
X204148628Y-195157200D01*
X204291485Y-194942914D01*
X204362914Y-194871485D01*
X205648628Y-195085771D02*
X204934342Y-195085771D01*
X204862914Y-195800057D01*
X204934342Y-195728628D01*
X205077200Y-195657200D01*
X205434342Y-195657200D01*
X205577200Y-195728628D01*
X205648628Y-195800057D01*
X205720057Y-195942914D01*
X205720057Y-196300057D01*
X205648628Y-196442914D01*
X205577200Y-196514342D01*
X205434342Y-196585771D01*
X205077200Y-196585771D01*
X204934342Y-196514342D01*
X204862914Y-196442914D01*
X206362914Y-196442914D02*
X206434342Y-196514342D01*
X206362914Y-196585771D01*
X206291485Y-196514342D01*
X206362914Y-196442914D01*
X206362914Y-196585771D01*
X207362914Y-195085771D02*
X207505771Y-195085771D01*
X207648628Y-195157200D01*
X207720057Y-195228628D01*
X207791485Y-195371485D01*
X207862914Y-195657200D01*
X207862914Y-196014342D01*
X207791485Y-196300057D01*
X207720057Y-196442914D01*
X207648628Y-196514342D01*
X207505771Y-196585771D01*
X207362914Y-196585771D01*
X207220057Y-196514342D01*
X207148628Y-196442914D01*
X207077200Y-196300057D01*
X207005771Y-196014342D01*
X207005771Y-195657200D01*
X207077200Y-195371485D01*
X207148628Y-195228628D01*
X207220057Y-195157200D01*
X207362914Y-195085771D01*
X208505771Y-196442914D02*
X208577200Y-196514342D01*
X208505771Y-196585771D01*
X208434342Y-196514342D01*
X208505771Y-196442914D01*
X208505771Y-196585771D01*
X209505771Y-195085771D02*
X209648628Y-195085771D01*
X209791485Y-195157200D01*
X209862914Y-195228628D01*
X209934342Y-195371485D01*
X210005771Y-195657200D01*
X210005771Y-196014342D01*
X209934342Y-196300057D01*
X209862914Y-196442914D01*
X209791485Y-196514342D01*
X209648628Y-196585771D01*
X209505771Y-196585771D01*
X209362914Y-196514342D01*
X209291485Y-196442914D01*
X209220057Y-196300057D01*
X209148628Y-196014342D01*
X209148628Y-195657200D01*
X209220057Y-195371485D01*
X209291485Y-195228628D01*
X209362914Y-195157200D01*
X209505771Y-195085771D01*
X210648628Y-196014342D02*
X211791485Y-196014342D01*
X212362914Y-195085771D02*
X213291485Y-195085771D01*
X212791485Y-195657200D01*
X213005771Y-195657200D01*
X213148628Y-195728628D01*
X213220057Y-195800057D01*
X213291485Y-195942914D01*
X213291485Y-196300057D01*
X213220057Y-196442914D01*
X213148628Y-196514342D01*
X213005771Y-196585771D01*
X212577200Y-196585771D01*
X212434342Y-196514342D01*
X212362914Y-196442914D01*
X213934342Y-196014342D02*
X215077200Y-196014342D01*
X216434342Y-195585771D02*
X216434342Y-196800057D01*
X216362914Y-196942914D01*
X216291485Y-197014342D01*
X216148628Y-197085771D01*
X215934342Y-197085771D01*
X215791485Y-197014342D01*
X216434342Y-196514342D02*
X216291485Y-196585771D01*
X216005771Y-196585771D01*
X215862914Y-196514342D01*
X215791485Y-196442914D01*
X215720057Y-196300057D01*
X215720057Y-195871485D01*
X215791485Y-195728628D01*
X215862914Y-195657200D01*
X216005771Y-195585771D01*
X216291485Y-195585771D01*
X216434342Y-195657200D01*
X217862914Y-195085771D02*
X217148628Y-195085771D01*
X217077200Y-195800057D01*
X217148628Y-195728628D01*
X217291485Y-195657200D01*
X217648628Y-195657200D01*
X217791485Y-195728628D01*
X217862914Y-195800057D01*
X217934342Y-195942914D01*
X217934342Y-196300057D01*
X217862914Y-196442914D01*
X217791485Y-196514342D01*
X217648628Y-196585771D01*
X217291485Y-196585771D01*
X217148628Y-196514342D01*
X217077200Y-196442914D01*
X219148628Y-196514342D02*
X219005771Y-196585771D01*
X218720057Y-196585771D01*
X218577200Y-196514342D01*
X218505771Y-196371485D01*
X218505771Y-195800057D01*
X218577200Y-195657200D01*
X218720057Y-195585771D01*
X219005771Y-195585771D01*
X219148628Y-195657200D01*
X219220057Y-195800057D01*
X219220057Y-195942914D01*
X218505771Y-196085771D01*
X219862914Y-196585771D02*
X219862914Y-195085771D01*
X219862914Y-195657200D02*
X220005771Y-195585771D01*
X220291485Y-195585771D01*
X220434342Y-195657200D01*
X220505771Y-195728628D01*
X220577200Y-195871485D01*
X220577200Y-196300057D01*
X220505771Y-196442914D01*
X220434342Y-196514342D01*
X220291485Y-196585771D01*
X220005771Y-196585771D01*
X219862914Y-196514342D01*
X221220057Y-196585771D02*
X221220057Y-195085771D01*
X221220057Y-195657200D02*
X221362914Y-195585771D01*
X221648628Y-195585771D01*
X221791485Y-195657200D01*
X221862914Y-195728628D01*
X221934342Y-195871485D01*
X221934342Y-196300057D01*
X221862914Y-196442914D01*
X221791485Y-196514342D01*
X221648628Y-196585771D01*
X221362914Y-196585771D01*
X221220057Y-196514342D01*
X223220057Y-195085771D02*
X222934342Y-195085771D01*
X222791485Y-195157200D01*
X222720057Y-195228628D01*
X222577200Y-195442914D01*
X222505771Y-195728628D01*
X222505771Y-196300057D01*
X222577200Y-196442914D01*
X222648628Y-196514342D01*
X222791485Y-196585771D01*
X223077200Y-196585771D01*
X223220057Y-196514342D01*
X223291485Y-196442914D01*
X223362914Y-196300057D01*
X223362914Y-195942914D01*
X223291485Y-195800057D01*
X223220057Y-195728628D01*
X223077200Y-195657200D01*
X222791485Y-195657200D01*
X222648628Y-195728628D01*
X222577200Y-195800057D01*
X222505771Y-195942914D01*
X224005771Y-196585771D02*
X224005771Y-195085771D01*
X224005771Y-195657200D02*
X224148628Y-195585771D01*
X224434342Y-195585771D01*
X224577200Y-195657200D01*
X224648628Y-195728628D01*
X224720057Y-195871485D01*
X224720057Y-196300057D01*
X224648628Y-196442914D01*
X224577200Y-196514342D01*
X224434342Y-196585771D01*
X224148628Y-196585771D01*
X224005771Y-196514342D01*
X226005771Y-195085771D02*
X225720057Y-195085771D01*
X225577200Y-195157200D01*
X225505771Y-195228628D01*
X225362914Y-195442914D01*
X225291485Y-195728628D01*
X225291485Y-196300057D01*
X225362914Y-196442914D01*
X225434342Y-196514342D01*
X225577200Y-196585771D01*
X225862914Y-196585771D01*
X226005771Y-196514342D01*
X226077200Y-196442914D01*
X226148628Y-196300057D01*
X226148628Y-195942914D01*
X226077200Y-195800057D01*
X226005771Y-195728628D01*
X225862914Y-195657200D01*
X225577200Y-195657200D01*
X225434342Y-195728628D01*
X225362914Y-195800057D01*
X225291485Y-195942914D01*
X226648628Y-197157200D02*
X226720057Y-197085771D01*
X226862914Y-196871485D01*
X226934342Y-196728628D01*
X227005771Y-196514342D01*
X227077200Y-196157200D01*
X227077200Y-195871485D01*
X227005771Y-195514342D01*
X226934342Y-195300057D01*
X226862914Y-195157200D01*
X226720057Y-194942914D01*
X226648628Y-194871485D01*
D10*
D11*
X177002200Y-191507200D02*
X285002200Y-191507200D01*
D10*
D12*
X264411485Y-193785771D02*
X263911485Y-193071485D01*
X263554342Y-193785771D02*
X263554342Y-192285771D01*
X264125771Y-192285771D01*
X264268628Y-192357200D01*
X264340057Y-192428628D01*
X264411485Y-192571485D01*
X264411485Y-192785771D01*
X264340057Y-192928628D01*
X264268628Y-193000057D01*
X264125771Y-193071485D01*
X263554342Y-193071485D01*
X265625771Y-193714342D02*
X265482914Y-193785771D01*
X265197200Y-193785771D01*
X265054342Y-193714342D01*
X264982914Y-193571485D01*
X264982914Y-193000057D01*
X265054342Y-192857200D01*
X265197200Y-192785771D01*
X265482914Y-192785771D01*
X265625771Y-192857200D01*
X265697200Y-193000057D01*
X265697200Y-193142914D01*
X264982914Y-193285771D01*
X266197200Y-192785771D02*
X266554342Y-193785771D01*
X266911485Y-192785771D01*
X267482914Y-193642914D02*
X267554342Y-193714342D01*
X267482914Y-193785771D01*
X267411485Y-193714342D01*
X267482914Y-193642914D01*
X267482914Y-193785771D01*
X267482914Y-192857200D02*
X267554342Y-192928628D01*
X267482914Y-193000057D01*
X267411485Y-192928628D01*
X267482914Y-192857200D01*
X267482914Y-193000057D01*
X270125771Y-193785771D02*
X269268628Y-193785771D01*
X269697200Y-193785771D02*
X269697200Y-192285771D01*
X269554342Y-192500057D01*
X269411485Y-192642914D01*
X269268628Y-192714342D01*
D10*
D11*
X178362914Y-193714342D02*
X178577200Y-193785771D01*
X178934342Y-193785771D01*
X179077200Y-193714342D01*
X179148628Y-193642914D01*
X179220057Y-193500057D01*
X179220057Y-193357200D01*
X179148628Y-193214342D01*
X179077200Y-193142914D01*
X178934342Y-193071485D01*
X178648628Y-193000057D01*
X178505771Y-192928628D01*
X178434342Y-192857200D01*
X178362914Y-192714342D01*
X178362914Y-192571485D01*
X178434342Y-192428628D01*
X178505771Y-192357200D01*
X178648628Y-192285771D01*
X179005771Y-192285771D01*
X179220057Y-192357200D01*
X179862914Y-193785771D02*
X179862914Y-192785771D01*
X179862914Y-192285771D02*
X179791485Y-192357200D01*
X179862914Y-192428628D01*
X179934342Y-192357200D01*
X179862914Y-192285771D01*
X179862914Y-192428628D01*
X180434342Y-192785771D02*
X181220057Y-192785771D01*
X180434342Y-193785771D01*
X181220057Y-193785771D01*
X182362914Y-193714342D02*
X182220057Y-193785771D01*
X181934342Y-193785771D01*
X181791485Y-193714342D01*
X181720057Y-193571485D01*
X181720057Y-193000057D01*
X181791485Y-192857200D01*
X181934342Y-192785771D01*
X182220057Y-192785771D01*
X182362914Y-192857200D01*
X182434342Y-193000057D01*
X182434342Y-193142914D01*
X181720057Y-193285771D01*
X183077200Y-193642914D02*
X183148628Y-193714342D01*
X183077200Y-193785771D01*
X183005771Y-193714342D01*
X183077200Y-193642914D01*
X183077200Y-193785771D01*
X183077200Y-192857200D02*
X183148628Y-192928628D01*
X183077200Y-193000057D01*
X183005771Y-192928628D01*
X183077200Y-192857200D01*
X183077200Y-193000057D01*
X184862914Y-193357200D02*
X185577200Y-193357200D01*
X184720057Y-193785771D02*
X185220057Y-192285771D01*
X185720057Y-193785771D01*
X186862914Y-192785771D02*
X186862914Y-193785771D01*
X186505771Y-192214342D02*
X186148628Y-193285771D01*
X187077200Y-193285771D01*
D10*
D11*
X263434342Y-196585771D02*
X263434342Y-195085771D01*
X264791485Y-196585771D02*
X264791485Y-195085771D01*
X264791485Y-196514342D02*
X264648628Y-196585771D01*
X264362914Y-196585771D01*
X264220057Y-196514342D01*
X264148628Y-196442914D01*
X264077200Y-196300057D01*
X264077200Y-195871485D01*
X264148628Y-195728628D01*
X264220057Y-195657200D01*
X264362914Y-195585771D01*
X264648628Y-195585771D01*
X264791485Y-195657200D01*
X265505771Y-196442914D02*
X265577200Y-196514342D01*
X265505771Y-196585771D01*
X265434342Y-196514342D01*
X265505771Y-196442914D01*
X265505771Y-196585771D01*
X265505771Y-195657200D02*
X265577200Y-195728628D01*
X265505771Y-195800057D01*
X265434342Y-195728628D01*
X265505771Y-195657200D01*
X265505771Y-195800057D01*
X268148628Y-196585771D02*
X267291485Y-196585771D01*
X267720057Y-196585771D02*
X267720057Y-195085771D01*
X267577200Y-195300057D01*
X267434342Y-195442914D01*
X267291485Y-195514342D01*
X269862914Y-195014342D02*
X268577200Y-196942914D01*
X271148628Y-196585771D02*
X270291485Y-196585771D01*
X270720057Y-196585771D02*
X270720057Y-195085771D01*
X270577200Y-195300057D01*
X270434342Y-195442914D01*
X270291485Y-195514342D01*
D10*
D11*
X177002200Y-187507200D02*
X285002200Y-187507200D01*
D10*
D13*
X178714580Y-188211961D02*
X179857438Y-188211961D01*
X179036009Y-190211961D02*
X179286009Y-188211961D01*
X180274104Y-190211961D02*
X180440771Y-188878628D01*
X180524104Y-188211961D02*
X180416961Y-188307200D01*
X180500295Y-188402438D01*
X180607438Y-188307200D01*
X180524104Y-188211961D01*
X180500295Y-188402438D01*
X181107438Y-188878628D02*
X181869342Y-188878628D01*
X181476485Y-188211961D02*
X181262200Y-189926247D01*
X181333628Y-190116723D01*
X181512200Y-190211961D01*
X181702676Y-190211961D01*
X182655057Y-190211961D02*
X182476485Y-190116723D01*
X182405057Y-189926247D01*
X182619342Y-188211961D01*
X184190771Y-190116723D02*
X183988390Y-190211961D01*
X183607438Y-190211961D01*
X183428866Y-190116723D01*
X183357438Y-189926247D01*
X183452676Y-189164342D01*
X183571723Y-188973866D01*
X183774104Y-188878628D01*
X184155057Y-188878628D01*
X184333628Y-188973866D01*
X184405057Y-189164342D01*
X184381247Y-189354819D01*
X183405057Y-189545295D01*
X185155057Y-190021485D02*
X185238390Y-190116723D01*
X185131247Y-190211961D01*
X185047914Y-190116723D01*
X185155057Y-190021485D01*
X185131247Y-190211961D01*
X185286009Y-188973866D02*
X185369342Y-189069104D01*
X185262200Y-189164342D01*
X185178866Y-189069104D01*
X185286009Y-188973866D01*
X185262200Y-189164342D01*
X188750295Y-190211961D02*
X188202676Y-189259580D01*
X187607438Y-190211961D02*
X187857438Y-188211961D01*
X188619342Y-188211961D01*
X188797914Y-188307200D01*
X188881247Y-188402438D01*
X188952676Y-188592914D01*
X188916961Y-188878628D01*
X188797914Y-189069104D01*
X188690771Y-189164342D01*
X188488390Y-189259580D01*
X187726485Y-189259580D01*
X190405057Y-189164342D02*
X189738390Y-189164342D01*
X189607438Y-190211961D02*
X189857438Y-188211961D01*
X190809819Y-188211961D01*
X191321723Y-190211961D02*
X191571723Y-188211961D01*
X192059819Y-189640533D01*
X192905057Y-188211961D01*
X192655057Y-190211961D01*
X194714580Y-188211961D02*
X194333628Y-188211961D01*
X194131247Y-188307200D01*
X194024104Y-188402438D01*
X193797914Y-188688152D01*
X193655057Y-189069104D01*
X193559819Y-189831009D01*
X193631247Y-190021485D01*
X193714580Y-190116723D01*
X193893152Y-190211961D01*
X194274104Y-190211961D01*
X194476485Y-190116723D01*
X194583628Y-190021485D01*
X194702676Y-189831009D01*
X194762200Y-189354819D01*
X194690771Y-189164342D01*
X194607438Y-189069104D01*
X194428866Y-188973866D01*
X194047914Y-188973866D01*
X193845533Y-189069104D01*
X193738390Y-189164342D01*
X193619342Y-189354819D01*
X195607438Y-190211961D02*
X195988390Y-190211961D01*
X196190771Y-190116723D01*
X196297914Y-190021485D01*
X196524104Y-189735771D01*
X196666961Y-189354819D01*
X196762200Y-188592914D01*
X196690771Y-188402438D01*
X196607438Y-188307200D01*
X196428866Y-188211961D01*
X196047914Y-188211961D01*
X195845533Y-188307200D01*
X195738390Y-188402438D01*
X195619342Y-188592914D01*
X195559819Y-189069104D01*
X195631247Y-189259580D01*
X195714580Y-189354819D01*
X195893152Y-189450057D01*
X196274104Y-189450057D01*
X196476485Y-189354819D01*
X196583628Y-189259580D01*
X196702676Y-189069104D01*
X197416961Y-190211961D02*
X197666961Y-188211961D01*
X197547914Y-189164342D02*
X198690771Y-189164342D01*
X198559819Y-190211961D02*
X198809819Y-188211961D01*
X200678866Y-190021485D02*
X200571723Y-190116723D01*
X200274104Y-190211961D01*
X200083628Y-190211961D01*
X199809819Y-190116723D01*
X199643152Y-189926247D01*
X199571723Y-189735771D01*
X199524104Y-189354819D01*
X199559819Y-189069104D01*
X199702676Y-188688152D01*
X199821723Y-188497676D01*
X200036009Y-188307200D01*
X200333628Y-188211961D01*
X200524104Y-188211961D01*
X200797914Y-188307200D01*
X200881247Y-188402438D01*
X201571723Y-188211961D02*
X201797914Y-190211961D01*
X202357438Y-188783390D01*
X202559819Y-190211961D01*
X203286009Y-188211961D01*
X203893152Y-189450057D02*
X205416961Y-189450057D01*
X206702676Y-189069104D02*
X206524104Y-188973866D01*
X206440771Y-188878628D01*
X206369342Y-188688152D01*
X206381247Y-188592914D01*
X206500295Y-188402438D01*
X206607438Y-188307200D01*
X206809819Y-188211961D01*
X207190771Y-188211961D01*
X207369342Y-188307200D01*
X207452676Y-188402438D01*
X207524104Y-188592914D01*
X207512200Y-188688152D01*
X207393152Y-188878628D01*
X207286009Y-188973866D01*
X207083628Y-189069104D01*
X206702676Y-189069104D01*
X206500295Y-189164342D01*
X206393152Y-189259580D01*
X206274104Y-189450057D01*
X206226485Y-189831009D01*
X206297914Y-190021485D01*
X206381247Y-190116723D01*
X206559819Y-190211961D01*
X206940771Y-190211961D01*
X207143152Y-190116723D01*
X207250295Y-190021485D01*
X207369342Y-189831009D01*
X207416961Y-189450057D01*
X207345533Y-189259580D01*
X207262200Y-189164342D01*
X207083628Y-189069104D01*
X209286009Y-188211961D02*
X208905057Y-188211961D01*
X208702676Y-188307200D01*
X208595533Y-188402438D01*
X208369342Y-188688152D01*
X208226485Y-189069104D01*
X208131247Y-189831009D01*
X208202676Y-190021485D01*
X208286009Y-190116723D01*
X208464580Y-190211961D01*
X208845533Y-190211961D01*
X209047914Y-190116723D01*
X209155057Y-190021485D01*
X209274104Y-189831009D01*
X209333628Y-189354819D01*
X209262200Y-189164342D01*
X209178866Y-189069104D01*
X209000295Y-188973866D01*
X208619342Y-188973866D01*
X208416961Y-189069104D01*
X208309819Y-189164342D01*
X208190771Y-189354819D01*
X210512200Y-189069104D02*
X210333628Y-188973866D01*
X210250295Y-188878628D01*
X210178866Y-188688152D01*
X210190771Y-188592914D01*
X210309819Y-188402438D01*
X210416961Y-188307200D01*
X210619342Y-188211961D01*
X211000295Y-188211961D01*
X211178866Y-188307200D01*
X211262200Y-188402438D01*
X211333628Y-188592914D01*
X211321723Y-188688152D01*
X211202676Y-188878628D01*
X211095533Y-188973866D01*
X210893152Y-189069104D01*
X210512200Y-189069104D01*
X210309819Y-189164342D01*
X210202676Y-189259580D01*
X210083628Y-189450057D01*
X210036009Y-189831009D01*
X210107438Y-190021485D01*
X210190771Y-190116723D01*
X210369342Y-190211961D01*
X210750295Y-190211961D01*
X210952676Y-190116723D01*
X211059819Y-190021485D01*
X211178866Y-189831009D01*
X211226485Y-189450057D01*
X211155057Y-189259580D01*
X211071723Y-189164342D01*
X210893152Y-189069104D01*
X212083628Y-189450057D02*
X213607438Y-189450057D01*
X214381247Y-190116723D02*
X214655057Y-190211961D01*
X215131247Y-190211961D01*
X215333628Y-190116723D01*
X215440771Y-190021485D01*
X215559819Y-189831009D01*
X215583628Y-189640533D01*
X215512200Y-189450057D01*
X215428866Y-189354819D01*
X215250295Y-189259580D01*
X214881247Y-189164342D01*
X214702676Y-189069104D01*
X214619342Y-188973866D01*
X214547914Y-188783390D01*
X214571723Y-188592914D01*
X214690771Y-188402438D01*
X214797914Y-188307200D01*
X215000295Y-188211961D01*
X215476485Y-188211961D01*
X215750295Y-188307200D01*
X216500295Y-188402438D02*
X216607438Y-188307200D01*
X216809819Y-188211961D01*
X217286009Y-188211961D01*
X217464580Y-188307200D01*
X217547914Y-188402438D01*
X217619342Y-188592914D01*
X217595533Y-188783390D01*
X217464580Y-189069104D01*
X216178866Y-190211961D01*
X217416961Y-190211961D01*
X219964580Y-188878628D02*
X219714580Y-190878628D01*
X219952676Y-188973866D02*
X220155057Y-188878628D01*
X220536009Y-188878628D01*
X220714580Y-188973866D01*
X220797914Y-189069104D01*
X220869342Y-189259580D01*
X220797914Y-189831009D01*
X220678866Y-190021485D01*
X220571723Y-190116723D01*
X220369342Y-190211961D01*
X219988390Y-190211961D01*
X219809819Y-190116723D01*
X222464580Y-190211961D02*
X222595533Y-189164342D01*
X222524104Y-188973866D01*
X222345533Y-188878628D01*
X221964580Y-188878628D01*
X221762200Y-188973866D01*
X222476485Y-190116723D02*
X222274104Y-190211961D01*
X221797914Y-190211961D01*
X221619342Y-190116723D01*
X221547914Y-189926247D01*
X221571723Y-189735771D01*
X221690771Y-189545295D01*
X221893152Y-189450057D01*
X222369342Y-189450057D01*
X222571723Y-189354819D01*
X223416961Y-190211961D02*
X223583628Y-188878628D01*
X223536009Y-189259580D02*
X223655057Y-189069104D01*
X223762199Y-188973866D01*
X223964580Y-188878628D01*
X224155057Y-188878628D01*
X224536009Y-188878628D02*
X225297914Y-188878628D01*
X224905057Y-188211961D02*
X224690771Y-189926247D01*
X224762200Y-190116723D01*
X224940771Y-190211961D01*
X225131247Y-190211961D01*
X225797914Y-190211961D02*
X225964580Y-188878628D01*
X226047914Y-188211961D02*
X225940771Y-188307200D01*
X226024104Y-188402438D01*
X226131247Y-188307200D01*
X226047914Y-188211961D01*
X226024104Y-188402438D01*
X227607438Y-190211961D02*
X227738390Y-189164342D01*
X227666961Y-188973866D01*
X227488390Y-188878628D01*
X227107438Y-188878628D01*
X226905057Y-188973866D01*
X227619342Y-190116723D02*
X227416961Y-190211961D01*
X226940771Y-190211961D01*
X226762200Y-190116723D01*
X226690771Y-189926247D01*
X226714580Y-189735771D01*
X226833628Y-189545295D01*
X227036009Y-189450057D01*
X227512200Y-189450057D01*
X227714580Y-189354819D01*
X228845533Y-190211961D02*
X228666961Y-190116723D01*
X228595533Y-189926247D01*
X228809819Y-188211961D01*
X231131247Y-190211961D02*
X231381247Y-188211961D01*
X231262199Y-189164342D02*
X232405057Y-189164342D01*
X232274104Y-190211961D02*
X232524104Y-188211961D01*
X233202676Y-189640533D02*
X234155057Y-189640533D01*
X232940771Y-190211961D02*
X233857438Y-188211961D01*
X234274104Y-190211961D01*
X234905057Y-188211961D02*
X236047914Y-188211961D01*
X235226485Y-190211961D02*
X235476485Y-188211961D01*
X237869342Y-188878628D02*
X238631247Y-188878628D01*
X237988390Y-190211961D02*
X238202676Y-188497676D01*
X238321723Y-188307200D01*
X238524104Y-188211961D01*
X238714580Y-188211961D01*
X239416961Y-190211961D02*
X239238390Y-190116723D01*
X239155057Y-190021485D01*
X239083628Y-189831009D01*
X239155057Y-189259580D01*
X239274104Y-189069104D01*
X239381247Y-188973866D01*
X239583628Y-188878628D01*
X239869342Y-188878628D01*
X240047914Y-188973866D01*
X240131247Y-189069104D01*
X240202676Y-189259580D01*
X240131247Y-189831009D01*
X240012199Y-190021485D01*
X239905057Y-190116723D01*
X239702676Y-190211961D01*
X239416961Y-190211961D01*
X240940771Y-190211961D02*
X241107438Y-188878628D01*
X241059819Y-189259580D02*
X241178866Y-189069104D01*
X241286009Y-188973866D01*
X241488390Y-188878628D01*
X241678866Y-188878628D01*
X243869342Y-188878628D02*
X243619342Y-190878628D01*
X243857438Y-188973866D02*
X244059819Y-188878628D01*
X244440771Y-188878628D01*
X244619342Y-188973866D01*
X244702676Y-189069104D01*
X244774104Y-189259580D01*
X244702676Y-189831009D01*
X244583628Y-190021485D01*
X244476485Y-190116723D01*
X244274104Y-190211961D01*
X243893152Y-190211961D01*
X243714580Y-190116723D01*
X245512199Y-190211961D02*
X245678866Y-188878628D01*
X245762199Y-188211961D02*
X245655057Y-188307200D01*
X245738390Y-188402438D01*
X245845533Y-188307200D01*
X245762199Y-188211961D01*
X245738390Y-188402438D01*
X248047914Y-188211961D02*
X249381247Y-188211961D01*
X247797914Y-190211961D01*
X249131247Y-190211961D01*
X250666961Y-190116723D02*
X250464580Y-190211961D01*
X250083628Y-190211961D01*
X249905057Y-190116723D01*
X249833628Y-189926247D01*
X249928866Y-189164342D01*
X250047914Y-188973866D01*
X250250295Y-188878628D01*
X250631247Y-188878628D01*
X250809819Y-188973866D01*
X250881247Y-189164342D01*
X250857438Y-189354819D01*
X249881247Y-189545295D01*
X251607438Y-190211961D02*
X251774104Y-188878628D01*
X251726485Y-189259580D02*
X251845533Y-189069104D01*
X251952676Y-188973866D01*
X252155057Y-188878628D01*
X252345533Y-188878628D01*
X253131247Y-190211961D02*
X252952676Y-190116723D01*
X252869342Y-190021485D01*
X252797914Y-189831009D01*
X252869342Y-189259580D01*
X252988390Y-189069104D01*
X253095533Y-188973866D01*
X253297914Y-188878628D01*
X253583628Y-188878628D01*
X253762200Y-188973866D01*
X253845533Y-189069104D01*
X253916961Y-189259580D01*
X253845533Y-189831009D01*
X253726485Y-190021485D01*
X253619342Y-190116723D01*
X253416961Y-190211961D01*
X253131247Y-190211961D01*
D10*
D11*
X178934342Y-185600057D02*
X178434342Y-185600057D01*
X178434342Y-186385771D02*
X178434342Y-184885771D01*
X179148628Y-184885771D01*
X179720057Y-186385771D02*
X179720057Y-185385771D01*
X179720057Y-184885771D02*
X179648628Y-184957200D01*
X179720057Y-185028628D01*
X179791485Y-184957200D01*
X179720057Y-184885771D01*
X179720057Y-185028628D01*
X180648628Y-186385771D02*
X180505771Y-186314342D01*
X180434342Y-186171485D01*
X180434342Y-184885771D01*
X181791485Y-186314342D02*
X181648628Y-186385771D01*
X181362914Y-186385771D01*
X181220057Y-186314342D01*
X181148628Y-186171485D01*
X181148628Y-185600057D01*
X181220057Y-185457200D01*
X181362914Y-185385771D01*
X181648628Y-185385771D01*
X181791485Y-185457200D01*
X181862914Y-185600057D01*
X181862914Y-185742914D01*
X181148628Y-185885771D01*
X182505771Y-186242914D02*
X182577200Y-186314342D01*
X182505771Y-186385771D01*
X182434342Y-186314342D01*
X182505771Y-186242914D01*
X182505771Y-186385771D01*
X182505771Y-185457200D02*
X182577200Y-185528628D01*
X182505771Y-185600057D01*
X182434342Y-185528628D01*
X182505771Y-185457200D01*
X182505771Y-185600057D01*
X185220057Y-186385771D02*
X184720057Y-185671485D01*
X184362914Y-186385771D02*
X184362914Y-184885771D01*
X184934342Y-184885771D01*
X185077200Y-184957200D01*
X185148628Y-185028628D01*
X185220057Y-185171485D01*
X185220057Y-185385771D01*
X185148628Y-185528628D01*
X185077200Y-185600057D01*
X184934342Y-185671485D01*
X184362914Y-185671485D01*
X186362914Y-185600057D02*
X185862914Y-185600057D01*
X185862914Y-186385771D02*
X185862914Y-184885771D01*
X186577200Y-184885771D01*
X187148628Y-186385771D02*
X187148628Y-184885771D01*
X187648628Y-185957200D01*
X188148628Y-184885771D01*
X188148628Y-186385771D01*
X189505771Y-184885771D02*
X189220057Y-184885771D01*
X189077200Y-184957200D01*
X189005771Y-185028628D01*
X188862914Y-185242914D01*
X188791485Y-185528628D01*
X188791485Y-186100057D01*
X188862914Y-186242914D01*
X188934342Y-186314342D01*
X189077200Y-186385771D01*
X189362914Y-186385771D01*
X189505771Y-186314342D01*
X189577200Y-186242914D01*
X189648628Y-186100057D01*
X189648628Y-185742914D01*
X189577200Y-185600057D01*
X189505771Y-185528628D01*
X189362914Y-185457200D01*
X189077200Y-185457200D01*
X188934342Y-185528628D01*
X188862914Y-185600057D01*
X188791485Y-185742914D01*
X190362914Y-186385771D02*
X190648628Y-186385771D01*
X190791485Y-186314342D01*
X190862914Y-186242914D01*
X191005771Y-186028628D01*
X191077200Y-185742914D01*
X191077200Y-185171485D01*
X191005771Y-185028628D01*
X190934342Y-184957200D01*
X190791485Y-184885771D01*
X190505771Y-184885771D01*
X190362914Y-184957200D01*
X190291485Y-185028628D01*
X190220057Y-185171485D01*
X190220057Y-185528628D01*
X190291485Y-185671485D01*
X190362914Y-185742914D01*
X190505771Y-185814342D01*
X190791485Y-185814342D01*
X190934342Y-185742914D01*
X191005771Y-185671485D01*
X191077200Y-185528628D01*
X191720057Y-186385771D02*
X191720057Y-184885771D01*
X191720057Y-185600057D02*
X192577200Y-185600057D01*
X192577200Y-186385771D02*
X192577200Y-184885771D01*
X194148628Y-186242914D02*
X194077200Y-186314342D01*
X193862914Y-186385771D01*
X193720057Y-186385771D01*
X193505771Y-186314342D01*
X193362914Y-186171485D01*
X193291485Y-186028628D01*
X193220057Y-185742914D01*
X193220057Y-185528628D01*
X193291485Y-185242914D01*
X193362914Y-185100057D01*
X193505771Y-184957200D01*
X193720057Y-184885771D01*
X193862914Y-184885771D01*
X194077200Y-184957200D01*
X194148628Y-185028628D01*
X194648628Y-184885771D02*
X195005771Y-186385771D01*
X195291485Y-185314342D01*
X195577200Y-186385771D01*
X195934342Y-184885771D01*
X196505771Y-185814342D02*
X197648628Y-185814342D01*
X198577200Y-185528628D02*
X198434342Y-185457200D01*
X198362914Y-185385771D01*
X198291485Y-185242914D01*
X198291485Y-185171485D01*
X198362914Y-185028628D01*
X198434342Y-184957200D01*
X198577200Y-184885771D01*
X198862914Y-184885771D01*
X199005771Y-184957200D01*
X199077200Y-185028628D01*
X199148628Y-185171485D01*
X199148628Y-185242914D01*
X199077200Y-185385771D01*
X199005771Y-185457200D01*
X198862914Y-185528628D01*
X198577200Y-185528628D01*
X198434342Y-185600057D01*
X198362914Y-185671485D01*
X198291485Y-185814342D01*
X198291485Y-186100057D01*
X198362914Y-186242914D01*
X198434342Y-186314342D01*
X198577200Y-186385771D01*
X198862914Y-186385771D01*
X199005771Y-186314342D01*
X199077200Y-186242914D01*
X199148628Y-186100057D01*
X199148628Y-185814342D01*
X199077200Y-185671485D01*
X199005771Y-185600057D01*
X198862914Y-185528628D01*
X200434342Y-184885771D02*
X200148628Y-184885771D01*
X200005771Y-184957200D01*
X199934342Y-185028628D01*
X199791485Y-185242914D01*
X199720057Y-185528628D01*
X199720057Y-186100057D01*
X199791485Y-186242914D01*
X199862914Y-186314342D01*
X200005771Y-186385771D01*
X200291485Y-186385771D01*
X200434342Y-186314342D01*
X200505771Y-186242914D01*
X200577200Y-186100057D01*
X200577200Y-185742914D01*
X200505771Y-185600057D01*
X200434342Y-185528628D01*
X200291485Y-185457200D01*
X200005771Y-185457200D01*
X199862914Y-185528628D01*
X199791485Y-185600057D01*
X199720057Y-185742914D01*
X201434342Y-185528628D02*
X201291485Y-185457200D01*
X201220057Y-185385771D01*
X201148628Y-185242914D01*
X201148628Y-185171485D01*
X201220057Y-185028628D01*
X201291485Y-184957200D01*
X201434342Y-184885771D01*
X201720057Y-184885771D01*
X201862914Y-184957200D01*
X201934342Y-185028628D01*
X202005771Y-185171485D01*
X202005771Y-185242914D01*
X201934342Y-185385771D01*
X201862914Y-185457200D01*
X201720057Y-185528628D01*
X201434342Y-185528628D01*
X201291485Y-185600057D01*
X201220057Y-185671485D01*
X201148628Y-185814342D01*
X201148628Y-186100057D01*
X201220057Y-186242914D01*
X201291485Y-186314342D01*
X201434342Y-186385771D01*
X201720057Y-186385771D01*
X201862914Y-186314342D01*
X201934342Y-186242914D01*
X202005771Y-186100057D01*
X202005771Y-185814342D01*
X201934342Y-185671485D01*
X201862914Y-185600057D01*
X201720057Y-185528628D01*
X202648628Y-185814342D02*
X203791485Y-185814342D01*
X204434342Y-186314342D02*
X204648628Y-186385771D01*
X205005771Y-186385771D01*
X205148628Y-186314342D01*
X205220057Y-186242914D01*
X205291485Y-186100057D01*
X205291485Y-185957200D01*
X205220057Y-185814342D01*
X205148628Y-185742914D01*
X205005771Y-185671485D01*
X204720057Y-185600057D01*
X204577200Y-185528628D01*
X204505771Y-185457200D01*
X204434342Y-185314342D01*
X204434342Y-185171485D01*
X204505771Y-185028628D01*
X204577200Y-184957200D01*
X204720057Y-184885771D01*
X205077200Y-184885771D01*
X205291485Y-184957200D01*
X205862914Y-185028628D02*
X205934342Y-184957200D01*
X206077200Y-184885771D01*
X206434342Y-184885771D01*
X206577200Y-184957200D01*
X206648628Y-185028628D01*
X206720057Y-185171485D01*
X206720057Y-185314342D01*
X206648628Y-185528628D01*
X205791485Y-186385771D01*
X206720057Y-186385771D01*
X207362914Y-186242914D02*
X207434342Y-186314342D01*
X207362914Y-186385771D01*
X207291485Y-186314342D01*
X207362914Y-186242914D01*
X207362914Y-186385771D01*
X208077200Y-186385771D02*
X208077200Y-184885771D01*
X208220057Y-185814342D02*
X208648628Y-186385771D01*
X208648628Y-185385771D02*
X208077200Y-185957200D01*
X209291485Y-186385771D02*
X209291485Y-185385771D01*
X209291485Y-184885771D02*
X209220057Y-184957200D01*
X209291485Y-185028628D01*
X209362914Y-184957200D01*
X209291485Y-184885771D01*
X209291485Y-185028628D01*
X210648628Y-186314342D02*
X210505771Y-186385771D01*
X210220057Y-186385771D01*
X210077200Y-186314342D01*
X210005771Y-186242914D01*
X209934342Y-186100057D01*
X209934342Y-185671485D01*
X210005771Y-185528628D01*
X210077200Y-185457200D01*
X210220057Y-185385771D01*
X210505771Y-185385771D01*
X210648628Y-185457200D01*
X211934342Y-186385771D02*
X211934342Y-185600057D01*
X211862914Y-185457200D01*
X211720057Y-185385771D01*
X211434342Y-185385771D01*
X211291485Y-185457200D01*
X211934342Y-186314342D02*
X211791485Y-186385771D01*
X211434342Y-186385771D01*
X211291485Y-186314342D01*
X211220057Y-186171485D01*
X211220057Y-186028628D01*
X211291485Y-185885771D01*
X211434342Y-185814342D01*
X211791485Y-185814342D01*
X211934342Y-185742914D01*
X213291485Y-186385771D02*
X213291485Y-184885771D01*
X213291485Y-186314342D02*
X213148628Y-186385771D01*
X212862914Y-186385771D01*
X212720057Y-186314342D01*
X212648628Y-186242914D01*
X212577200Y-186100057D01*
X212577200Y-185671485D01*
X212648628Y-185528628D01*
X212720057Y-185457200D01*
X212862914Y-185385771D01*
X213148628Y-185385771D01*
X213291485Y-185457200D01*
X213648628Y-186528628D02*
X214791485Y-186528628D01*
X215148628Y-185385771D02*
X215148628Y-186885771D01*
X215148628Y-185457200D02*
X215291485Y-185385771D01*
X215577200Y-185385771D01*
X215720057Y-185457200D01*
X215791485Y-185528628D01*
X215862914Y-185671485D01*
X215862914Y-186100057D01*
X215791485Y-186242914D01*
X215720057Y-186314342D01*
X215577200Y-186385771D01*
X215291485Y-186385771D01*
X215148628Y-186314342D01*
X217148628Y-186314342D02*
X217005771Y-186385771D01*
X216720057Y-186385771D01*
X216577200Y-186314342D01*
X216505771Y-186242914D01*
X216434342Y-186100057D01*
X216434342Y-185671485D01*
X216505771Y-185528628D01*
X216577200Y-185457200D01*
X216720057Y-185385771D01*
X217005771Y-185385771D01*
X217148628Y-185457200D01*
X217791485Y-186385771D02*
X217791485Y-184885771D01*
X217791485Y-185457200D02*
X217934342Y-185385771D01*
X218220057Y-185385771D01*
X218362914Y-185457200D01*
X218434342Y-185528628D01*
X218505771Y-185671485D01*
X218505771Y-186100057D01*
X218434342Y-186242914D01*
X218362914Y-186314342D01*
X218220057Y-186385771D01*
X217934342Y-186385771D01*
X217791485Y-186314342D01*
D10*
D11*
X177002200Y-181507200D02*
X285002200Y-181507200D01*
D10*
D11*
X178362914Y-183614342D02*
X178577200Y-183685771D01*
X178934342Y-183685771D01*
X179077200Y-183614342D01*
X179148628Y-183542914D01*
X179220057Y-183400057D01*
X179220057Y-183257200D01*
X179148628Y-183114342D01*
X179077200Y-183042914D01*
X178934342Y-182971485D01*
X178648628Y-182900057D01*
X178505771Y-182828628D01*
X178434342Y-182757200D01*
X178362914Y-182614342D01*
X178362914Y-182471485D01*
X178434342Y-182328628D01*
X178505771Y-182257200D01*
X178648628Y-182185771D01*
X179005771Y-182185771D01*
X179220057Y-182257200D01*
X179862914Y-183685771D02*
X179862914Y-182185771D01*
X180505771Y-183685771D02*
X180505771Y-182900057D01*
X180434342Y-182757200D01*
X180291485Y-182685771D01*
X180077200Y-182685771D01*
X179934342Y-182757200D01*
X179862914Y-182828628D01*
X181791485Y-183614342D02*
X181648628Y-183685771D01*
X181362914Y-183685771D01*
X181220057Y-183614342D01*
X181148628Y-183471485D01*
X181148628Y-182900057D01*
X181220057Y-182757200D01*
X181362914Y-182685771D01*
X181648628Y-182685771D01*
X181791485Y-182757200D01*
X181862914Y-182900057D01*
X181862914Y-183042914D01*
X181148628Y-183185771D01*
X183077200Y-183614342D02*
X182934342Y-183685771D01*
X182648628Y-183685771D01*
X182505771Y-183614342D01*
X182434342Y-183471485D01*
X182434342Y-182900057D01*
X182505771Y-182757200D01*
X182648628Y-182685771D01*
X182934342Y-182685771D01*
X183077200Y-182757200D01*
X183148628Y-182900057D01*
X183148628Y-183042914D01*
X182434342Y-183185771D01*
X183577200Y-182685771D02*
X184148628Y-182685771D01*
X183791485Y-182185771D02*
X183791485Y-183471485D01*
X183862914Y-183614342D01*
X184005771Y-183685771D01*
X184148628Y-183685771D01*
X184648628Y-183542914D02*
X184720057Y-183614342D01*
X184648628Y-183685771D01*
X184577200Y-183614342D01*
X184648628Y-183542914D01*
X184648628Y-183685771D01*
X184648628Y-182757200D02*
X184720057Y-182828628D01*
X184648628Y-182900057D01*
X184577200Y-182828628D01*
X184648628Y-182757200D01*
X184648628Y-182900057D01*
D10*
D12*
X178554342Y-180685771D02*
X178554342Y-179185771D01*
X179054342Y-180257200D01*
X179554342Y-179185771D01*
X179554342Y-180685771D01*
X180268628Y-180685771D02*
X180268628Y-179185771D01*
X180768628Y-180257200D01*
X181268628Y-179185771D01*
X181268628Y-180685771D01*
X183125771Y-179900057D02*
X183625771Y-179900057D01*
X183840057Y-180685771D02*
X183125771Y-180685771D01*
X183125771Y-179185771D01*
X183840057Y-179185771D01*
X184697200Y-180685771D02*
X184554342Y-180614342D01*
X184482914Y-180471485D01*
X184482914Y-179185771D01*
X185840057Y-180614342D02*
X185697200Y-180685771D01*
X185411485Y-180685771D01*
X185268628Y-180614342D01*
X185197200Y-180471485D01*
X185197200Y-179900057D01*
X185268628Y-179757200D01*
X185411485Y-179685771D01*
X185697200Y-179685771D01*
X185840057Y-179757200D01*
X185911485Y-179900057D01*
X185911485Y-180042914D01*
X185197200Y-180185771D01*
X187197200Y-180614342D02*
X187054342Y-180685771D01*
X186768628Y-180685771D01*
X186625771Y-180614342D01*
X186554342Y-180542914D01*
X186482914Y-180400057D01*
X186482914Y-179971485D01*
X186554342Y-179828628D01*
X186625771Y-179757200D01*
X186768628Y-179685771D01*
X187054342Y-179685771D01*
X187197200Y-179757200D01*
X187625771Y-179685771D02*
X188197200Y-179685771D01*
X187840057Y-179185771D02*
X187840057Y-180471485D01*
X187911485Y-180614342D01*
X188054342Y-180685771D01*
X188197200Y-180685771D01*
X188697200Y-180685771D02*
X188697200Y-179685771D01*
X188697200Y-179971485D02*
X188768628Y-179828628D01*
X188840057Y-179757200D01*
X188982914Y-179685771D01*
X189125771Y-179685771D01*
X189840057Y-180685771D02*
X189697200Y-180614342D01*
X189625771Y-180542914D01*
X189554342Y-180400057D01*
X189554342Y-179971485D01*
X189625771Y-179828628D01*
X189697200Y-179757200D01*
X189840057Y-179685771D01*
X190054342Y-179685771D01*
X190197200Y-179757200D01*
X190268628Y-179828628D01*
X190340057Y-179971485D01*
X190340057Y-180400057D01*
X190268628Y-180542914D01*
X190197200Y-180614342D01*
X190054342Y-180685771D01*
X189840057Y-180685771D01*
X190982914Y-179685771D02*
X190982914Y-180685771D01*
X190982914Y-179828628D02*
X191054342Y-179757200D01*
X191197200Y-179685771D01*
X191411485Y-179685771D01*
X191554342Y-179757200D01*
X191625771Y-179900057D01*
X191625771Y-180685771D01*
X192340057Y-180685771D02*
X192340057Y-179685771D01*
X192340057Y-179185771D02*
X192268628Y-179257200D01*
X192340057Y-179328628D01*
X192411485Y-179257200D01*
X192340057Y-179185771D01*
X192340057Y-179328628D01*
X193697200Y-180614342D02*
X193554342Y-180685771D01*
X193268628Y-180685771D01*
X193125771Y-180614342D01*
X193054342Y-180542914D01*
X192982914Y-180400057D01*
X192982914Y-179971485D01*
X193054342Y-179828628D01*
X193125771Y-179757200D01*
X193268628Y-179685771D01*
X193554342Y-179685771D01*
X193697200Y-179757200D01*
X194268628Y-180614342D02*
X194411485Y-180685771D01*
X194697200Y-180685771D01*
X194840057Y-180614342D01*
X194911485Y-180471485D01*
X194911485Y-180400057D01*
X194840057Y-180257200D01*
X194697200Y-180185771D01*
X194482914Y-180185771D01*
X194340057Y-180114342D01*
X194268628Y-179971485D01*
X194268628Y-179900057D01*
X194340057Y-179757200D01*
X194482914Y-179685771D01*
X194697200Y-179685771D01*
X194840057Y-179757200D01*
D10*
D11*
X178434342Y-177685771D02*
X178434342Y-176185771D01*
X178934342Y-177257200D01*
X179434342Y-176185771D01*
X179434342Y-177685771D01*
X180148628Y-177685771D02*
X180148628Y-176185771D01*
X180648628Y-176185771D02*
X181505771Y-176185771D01*
X181077200Y-177685771D02*
X181077200Y-176185771D01*
X183862914Y-177685771D02*
X183148628Y-177685771D01*
X183148628Y-176185771D01*
X184362914Y-177685771D02*
X184362914Y-176685771D01*
X184362914Y-176185771D02*
X184291485Y-176257200D01*
X184362914Y-176328628D01*
X184434342Y-176257200D01*
X184362914Y-176185771D01*
X184362914Y-176328628D01*
X185720057Y-177614342D02*
X185577200Y-177685771D01*
X185291485Y-177685771D01*
X185148628Y-177614342D01*
X185077200Y-177542914D01*
X185005771Y-177400057D01*
X185005771Y-176971485D01*
X185077200Y-176828628D01*
X185148628Y-176757200D01*
X185291485Y-176685771D01*
X185577200Y-176685771D01*
X185720057Y-176757200D01*
X186934342Y-177614342D02*
X186791485Y-177685771D01*
X186505771Y-177685771D01*
X186362914Y-177614342D01*
X186291485Y-177471485D01*
X186291485Y-176900057D01*
X186362914Y-176757200D01*
X186505771Y-176685771D01*
X186791485Y-176685771D01*
X186934342Y-176757200D01*
X187005771Y-176900057D01*
X187005771Y-177042914D01*
X186291485Y-177185771D01*
X187648628Y-176685771D02*
X187648628Y-177685771D01*
X187648628Y-176828628D02*
X187720057Y-176757200D01*
X187862914Y-176685771D01*
X188077200Y-176685771D01*
X188220057Y-176757200D01*
X188291485Y-176900057D01*
X188291485Y-177685771D01*
X188934342Y-177614342D02*
X189077200Y-177685771D01*
X189362914Y-177685771D01*
X189505771Y-177614342D01*
X189577200Y-177471485D01*
X189577200Y-177400057D01*
X189505771Y-177257200D01*
X189362914Y-177185771D01*
X189148628Y-177185771D01*
X189005771Y-177114342D01*
X188934342Y-176971485D01*
X188934342Y-176900057D01*
X189005771Y-176757200D01*
X189148628Y-176685771D01*
X189362914Y-176685771D01*
X189505771Y-176757200D01*
X190791485Y-177614342D02*
X190648628Y-177685771D01*
X190362914Y-177685771D01*
X190220057Y-177614342D01*
X190148628Y-177471485D01*
X190148628Y-176900057D01*
X190220057Y-176757200D01*
X190362914Y-176685771D01*
X190648628Y-176685771D01*
X190791485Y-176757200D01*
X190862914Y-176900057D01*
X190862914Y-177042914D01*
X190148628Y-177185771D01*
X192148628Y-177685771D02*
X192148628Y-176185771D01*
X192148628Y-177614342D02*
X192005771Y-177685771D01*
X191720057Y-177685771D01*
X191577200Y-177614342D01*
X191505771Y-177542914D01*
X191434342Y-177400057D01*
X191434342Y-176971485D01*
X191505771Y-176828628D01*
X191577200Y-176757200D01*
X191720057Y-176685771D01*
X192005771Y-176685771D01*
X192148628Y-176757200D01*
X194291485Y-176185771D02*
X194577200Y-176185771D01*
X194720057Y-176257200D01*
X194862914Y-176400057D01*
X194934342Y-176685771D01*
X194934342Y-177185771D01*
X194862914Y-177471485D01*
X194720057Y-177614342D01*
X194577200Y-177685771D01*
X194291485Y-177685771D01*
X194148628Y-177614342D01*
X194005771Y-177471485D01*
X193934342Y-177185771D01*
X193934342Y-176685771D01*
X194005771Y-176400057D01*
X194148628Y-176257200D01*
X194291485Y-176185771D01*
X195577200Y-176685771D02*
X195577200Y-178185771D01*
X195577200Y-176757200D02*
X195720057Y-176685771D01*
X196005771Y-176685771D01*
X196148628Y-176757200D01*
X196220057Y-176828628D01*
X196291485Y-176971485D01*
X196291485Y-177400057D01*
X196220057Y-177542914D01*
X196148628Y-177614342D01*
X196005771Y-177685771D01*
X195720057Y-177685771D01*
X195577200Y-177614342D01*
X197505771Y-177614342D02*
X197362914Y-177685771D01*
X197077200Y-177685771D01*
X196934342Y-177614342D01*
X196862914Y-177471485D01*
X196862914Y-176900057D01*
X196934342Y-176757200D01*
X197077200Y-176685771D01*
X197362914Y-176685771D01*
X197505771Y-176757200D01*
X197577200Y-176900057D01*
X197577200Y-177042914D01*
X196862914Y-177185771D01*
X198220057Y-176685771D02*
X198220057Y-177685771D01*
X198220057Y-176828628D02*
X198291485Y-176757200D01*
X198434342Y-176685771D01*
X198648628Y-176685771D01*
X198791485Y-176757200D01*
X198862914Y-176900057D01*
X198862914Y-177685771D01*
X200648628Y-177614342D02*
X200862914Y-177685771D01*
X201220057Y-177685771D01*
X201362914Y-177614342D01*
X201434342Y-177542914D01*
X201505771Y-177400057D01*
X201505771Y-177257200D01*
X201434342Y-177114342D01*
X201362914Y-177042914D01*
X201220057Y-176971485D01*
X200934342Y-176900057D01*
X200791485Y-176828628D01*
X200720057Y-176757200D01*
X200648628Y-176614342D01*
X200648628Y-176471485D01*
X200720057Y-176328628D01*
X200791485Y-176257200D01*
X200934342Y-176185771D01*
X201291485Y-176185771D01*
X201505771Y-176257200D01*
X202362914Y-177685771D02*
X202220057Y-177614342D01*
X202148628Y-177542914D01*
X202077200Y-177400057D01*
X202077200Y-176971485D01*
X202148628Y-176828628D01*
X202220057Y-176757200D01*
X202362914Y-176685771D01*
X202577200Y-176685771D01*
X202720057Y-176757200D01*
X202791485Y-176828628D01*
X202862914Y-176971485D01*
X202862914Y-177400057D01*
X202791485Y-177542914D01*
X202720057Y-177614342D01*
X202577200Y-177685771D01*
X202362914Y-177685771D01*
X204148628Y-176685771D02*
X204148628Y-177685771D01*
X203505771Y-176685771D02*
X203505771Y-177471485D01*
X203577200Y-177614342D01*
X203720057Y-177685771D01*
X203934342Y-177685771D01*
X204077200Y-177614342D01*
X204148628Y-177542914D01*
X204862914Y-177685771D02*
X204862914Y-176685771D01*
X204862914Y-176971485D02*
X204934342Y-176828628D01*
X205005771Y-176757200D01*
X205148628Y-176685771D01*
X205291485Y-176685771D01*
X206434342Y-177614342D02*
X206291485Y-177685771D01*
X206005771Y-177685771D01*
X205862914Y-177614342D01*
X205791485Y-177542914D01*
X205720057Y-177400057D01*
X205720057Y-176971485D01*
X205791485Y-176828628D01*
X205862914Y-176757200D01*
X206005771Y-176685771D01*
X206291485Y-176685771D01*
X206434342Y-176757200D01*
X207648628Y-177614342D02*
X207505771Y-177685771D01*
X207220057Y-177685771D01*
X207077200Y-177614342D01*
X207005771Y-177471485D01*
X207005771Y-176900057D01*
X207077200Y-176757200D01*
X207220057Y-176685771D01*
X207505771Y-176685771D01*
X207648628Y-176757200D01*
X207720057Y-176900057D01*
X207720057Y-177042914D01*
X207005771Y-177185771D01*
X209505771Y-177685771D02*
X209505771Y-176185771D01*
X209505771Y-176900057D02*
X210362914Y-176900057D01*
X210362914Y-177685771D02*
X210362914Y-176185771D01*
X211720057Y-177685771D02*
X211720057Y-176900057D01*
X211648628Y-176757200D01*
X211505771Y-176685771D01*
X211220057Y-176685771D01*
X211077200Y-176757200D01*
X211720057Y-177614342D02*
X211577200Y-177685771D01*
X211220057Y-177685771D01*
X211077200Y-177614342D01*
X211005771Y-177471485D01*
X211005771Y-177328628D01*
X211077200Y-177185771D01*
X211220057Y-177114342D01*
X211577200Y-177114342D01*
X211720057Y-177042914D01*
X212434342Y-177685771D02*
X212434342Y-176685771D01*
X212434342Y-176971485D02*
X212505771Y-176828628D01*
X212577200Y-176757200D01*
X212720057Y-176685771D01*
X212862914Y-176685771D01*
X214005771Y-177685771D02*
X214005771Y-176185771D01*
X214005771Y-177614342D02*
X213862914Y-177685771D01*
X213577200Y-177685771D01*
X213434342Y-177614342D01*
X213362914Y-177542914D01*
X213291485Y-177400057D01*
X213291485Y-176971485D01*
X213362914Y-176828628D01*
X213434342Y-176757200D01*
X213577200Y-176685771D01*
X213862914Y-176685771D01*
X214005771Y-176757200D01*
X214577200Y-176685771D02*
X214862914Y-177685771D01*
X215148628Y-176971485D01*
X215434342Y-177685771D01*
X215720057Y-176685771D01*
X216934342Y-177685771D02*
X216934342Y-176900057D01*
X216862914Y-176757200D01*
X216720057Y-176685771D01*
X216434342Y-176685771D01*
X216291485Y-176757200D01*
X216934342Y-177614342D02*
X216791485Y-177685771D01*
X216434342Y-177685771D01*
X216291485Y-177614342D01*
X216220057Y-177471485D01*
X216220057Y-177328628D01*
X216291485Y-177185771D01*
X216434342Y-177114342D01*
X216791485Y-177114342D01*
X216934342Y-177042914D01*
X217648628Y-177685771D02*
X217648628Y-176685771D01*
X217648628Y-176971485D02*
X217720057Y-176828628D01*
X217791485Y-176757200D01*
X217934342Y-176685771D01*
X218077200Y-176685771D01*
X219148628Y-177614342D02*
X219005771Y-177685771D01*
X218720057Y-177685771D01*
X218577200Y-177614342D01*
X218505771Y-177471485D01*
X218505771Y-176900057D01*
X218577200Y-176757200D01*
X218720057Y-176685771D01*
X219005771Y-176685771D01*
X219148628Y-176757200D01*
X219220057Y-176900057D01*
X219220057Y-177042914D01*
X218505771Y-177185771D01*
D10*
D11*
X197002200Y-191507200D02*
X197002200Y-194507200D01*
D10*
D11*
X261002200Y-191507200D02*
X261002200Y-198007200D01*
D10*
%TO.C,U1*%
X67812920Y-61087000D02*
G75*
G03X67812920Y-61087000I-508000J0D01*
G01*
D14*
X50091340Y-58869580D02*
X50091340Y-58539380D01*
X50091340Y-56870600D02*
X50091340Y-56540400D01*
X50091340Y-54869080D02*
X50091340Y-54538880D01*
X50091340Y-52870100D02*
X50091340Y-52542440D01*
X50091340Y-50873660D02*
X50091340Y-50543460D01*
X50091340Y-48872140D02*
X50091340Y-48541940D01*
X50091340Y-46873160D02*
X50091340Y-46542960D01*
X66342260Y-46525180D02*
X66342260Y-46855380D01*
X66342260Y-48524160D02*
X66342260Y-48854360D01*
X66342260Y-50525680D02*
X66342260Y-50855880D01*
X66342260Y-52524660D02*
X66342260Y-52852320D01*
X66342260Y-54521100D02*
X66342260Y-54851300D01*
X66342260Y-56522620D02*
X66342260Y-56852820D01*
X66342260Y-60556140D02*
X66342260Y-60822840D01*
X50091340Y-60822840D02*
X50091340Y-60556140D01*
X66342260Y-58521600D02*
X66342260Y-58851800D01*
X50091340Y-44838620D02*
X50091340Y-44571920D01*
X66342260Y-44571920D02*
X66342260Y-44838620D01*
X50091340Y-44571920D02*
X66342260Y-44571920D01*
X66342260Y-60822840D02*
X50091340Y-60822840D01*
D15*
%TO.C,J2*%
X41180800Y-39083600D02*
X41180800Y-37753600D01*
X42510800Y-39083600D02*
X41180800Y-39083600D01*
X41180800Y-36483600D02*
X41180800Y-33883600D01*
X43780800Y-36483600D02*
X41180800Y-36483600D01*
X43780800Y-39083600D02*
X43780800Y-36483600D01*
X41180800Y-33883600D02*
X92100800Y-33883600D01*
X43780800Y-39083600D02*
X92100800Y-39083600D01*
X92100800Y-39083600D02*
X92100800Y-33883600D01*
%TO.C,C1*%
X43138800Y-45155600D02*
X43138800Y-44455600D01*
X44338800Y-44455600D02*
X44338800Y-45155600D01*
%TO.C,C2*%
X40528800Y-44455600D02*
X40528800Y-45155600D01*
X39328800Y-45155600D02*
X39328800Y-44455600D01*
%TO.C,C3*%
X45612800Y-54295600D02*
X44912800Y-54295600D01*
X44912800Y-53095600D02*
X45612800Y-53095600D01*
%TO.C,C4*%
X44912800Y-50555600D02*
X45612800Y-50555600D01*
X45612800Y-51755600D02*
X44912800Y-51755600D01*
%TO.C,L1*%
X41956800Y-45037600D02*
X41456800Y-45037600D01*
X41456800Y-46097600D02*
X41956800Y-46097600D01*
%TO.C,U1*%
D16*
X50035542Y-61166171D02*
X50035542Y-61659657D01*
X50064571Y-61717714D01*
X50093600Y-61746742D01*
X50151657Y-61775771D01*
X50267771Y-61775771D01*
X50325828Y-61746742D01*
X50354857Y-61717714D01*
X50383885Y-61659657D01*
X50383885Y-61166171D01*
X50993485Y-61775771D02*
X50645142Y-61775771D01*
X50819314Y-61775771D02*
X50819314Y-61166171D01*
X50761257Y-61253257D01*
X50703200Y-61311314D01*
X50645142Y-61340342D01*
X53226057Y-61775771D02*
X53022857Y-61485485D01*
X52877714Y-61775771D02*
X52877714Y-61166171D01*
X53109942Y-61166171D01*
X53168000Y-61195200D01*
X53197028Y-61224228D01*
X53226057Y-61282285D01*
X53226057Y-61369371D01*
X53197028Y-61427428D01*
X53168000Y-61456457D01*
X53109942Y-61485485D01*
X52877714Y-61485485D01*
X53690514Y-61456457D02*
X53487314Y-61456457D01*
X53487314Y-61775771D02*
X53487314Y-61166171D01*
X53777600Y-61166171D01*
X54009828Y-61775771D02*
X54009828Y-61166171D01*
X54213028Y-61601600D01*
X54416228Y-61166171D01*
X54416228Y-61775771D01*
X54967771Y-61166171D02*
X54851657Y-61166171D01*
X54793600Y-61195200D01*
X54764571Y-61224228D01*
X54706514Y-61311314D01*
X54677485Y-61427428D01*
X54677485Y-61659657D01*
X54706514Y-61717714D01*
X54735542Y-61746742D01*
X54793600Y-61775771D01*
X54909714Y-61775771D01*
X54967771Y-61746742D01*
X54996800Y-61717714D01*
X55025828Y-61659657D01*
X55025828Y-61514514D01*
X54996800Y-61456457D01*
X54967771Y-61427428D01*
X54909714Y-61398400D01*
X54793600Y-61398400D01*
X54735542Y-61427428D01*
X54706514Y-61456457D01*
X54677485Y-61514514D01*
X55316114Y-61775771D02*
X55432228Y-61775771D01*
X55490285Y-61746742D01*
X55519314Y-61717714D01*
X55577371Y-61630628D01*
X55606400Y-61514514D01*
X55606400Y-61282285D01*
X55577371Y-61224228D01*
X55548342Y-61195200D01*
X55490285Y-61166171D01*
X55374171Y-61166171D01*
X55316114Y-61195200D01*
X55287085Y-61224228D01*
X55258057Y-61282285D01*
X55258057Y-61427428D01*
X55287085Y-61485485D01*
X55316114Y-61514514D01*
X55374171Y-61543542D01*
X55490285Y-61543542D01*
X55548342Y-61514514D01*
X55577371Y-61485485D01*
X55606400Y-61427428D01*
X55867657Y-61775771D02*
X55867657Y-61166171D01*
X55867657Y-61456457D02*
X56216000Y-61456457D01*
X56216000Y-61775771D02*
X56216000Y-61166171D01*
X56854628Y-61717714D02*
X56825600Y-61746742D01*
X56738514Y-61775771D01*
X56680457Y-61775771D01*
X56593371Y-61746742D01*
X56535314Y-61688685D01*
X56506285Y-61630628D01*
X56477257Y-61514514D01*
X56477257Y-61427428D01*
X56506285Y-61311314D01*
X56535314Y-61253257D01*
X56593371Y-61195200D01*
X56680457Y-61166171D01*
X56738514Y-61166171D01*
X56825600Y-61195200D01*
X56854628Y-61224228D01*
X57057828Y-61166171D02*
X57202971Y-61775771D01*
X57319085Y-61340342D01*
X57435200Y-61775771D01*
X57580342Y-61166171D01*
D17*
X69062857Y-61774523D02*
X68337142Y-61774523D01*
X68700000Y-61774523D02*
X68700000Y-60504523D01*
X68579047Y-60685952D01*
X68458095Y-60806904D01*
X68337142Y-60867380D01*
%TO.C,AE1*%
D11*
X25333333Y-42366666D02*
X25809523Y-42366666D01*
X25238095Y-42652380D02*
X25571428Y-41652380D01*
X25904761Y-42652380D01*
X26238095Y-42128571D02*
X26571428Y-42128571D01*
X26714285Y-42652380D02*
X26238095Y-42652380D01*
X26238095Y-41652380D01*
X26714285Y-41652380D01*
X27666666Y-42652380D02*
X27095238Y-42652380D01*
X27380952Y-42652380D02*
X27380952Y-41652380D01*
X27285714Y-41795238D01*
X27190476Y-41890476D01*
X27095238Y-41938095D01*
X25476190Y-43152380D02*
X25571428Y-43152380D01*
X25666666Y-43200000D01*
X25714285Y-43247619D01*
X25761904Y-43342857D01*
X25809523Y-43533333D01*
X25809523Y-43771428D01*
X25761904Y-43961904D01*
X25714285Y-44057142D01*
X25666666Y-44104761D01*
X25571428Y-44152380D01*
X25476190Y-44152380D01*
X25380952Y-44104761D01*
X25333333Y-44057142D01*
X25285714Y-43961904D01*
X25238095Y-43771428D01*
X25238095Y-43533333D01*
X25285714Y-43342857D01*
X25333333Y-43247619D01*
X25380952Y-43200000D01*
X25476190Y-43152380D01*
X26380952Y-43580952D02*
X26285714Y-43533333D01*
X26238095Y-43485714D01*
X26190476Y-43390476D01*
X26190476Y-43342857D01*
X26238095Y-43247619D01*
X26285714Y-43200000D01*
X26380952Y-43152380D01*
X26571428Y-43152380D01*
X26666666Y-43200000D01*
X26714285Y-43247619D01*
X26761904Y-43342857D01*
X26761904Y-43390476D01*
X26714285Y-43485714D01*
X26666666Y-43533333D01*
X26571428Y-43580952D01*
X26380952Y-43580952D01*
X26285714Y-43628571D01*
X26238095Y-43676190D01*
X26190476Y-43771428D01*
X26190476Y-43961904D01*
X26238095Y-44057142D01*
X26285714Y-44104761D01*
X26380952Y-44152380D01*
X26571428Y-44152380D01*
X26666666Y-44104761D01*
X26714285Y-44057142D01*
X26761904Y-43961904D01*
X26761904Y-43771428D01*
X26714285Y-43676190D01*
X26666666Y-43628571D01*
X26571428Y-43580952D01*
X27619047Y-43152380D02*
X27428571Y-43152380D01*
X27333333Y-43200000D01*
X27285714Y-43247619D01*
X27190476Y-43390476D01*
X27142857Y-43580952D01*
X27142857Y-43961904D01*
X27190476Y-44057142D01*
X27238095Y-44104761D01*
X27333333Y-44152380D01*
X27523809Y-44152380D01*
X27619047Y-44104761D01*
X27666666Y-44057142D01*
X27714285Y-43961904D01*
X27714285Y-43723809D01*
X27666666Y-43628571D01*
X27619047Y-43580952D01*
X27523809Y-43533333D01*
X27333333Y-43533333D01*
X27238095Y-43580952D01*
X27190476Y-43628571D01*
X27142857Y-43723809D01*
X28285714Y-43580952D02*
X28190476Y-43533333D01*
X28142857Y-43485714D01*
X28095238Y-43390476D01*
X28095238Y-43342857D01*
X28142857Y-43247619D01*
X28190476Y-43200000D01*
X28285714Y-43152380D01*
X28476190Y-43152380D01*
X28571428Y-43200000D01*
X28619047Y-43247619D01*
X28666666Y-43342857D01*
X28666666Y-43390476D01*
X28619047Y-43485714D01*
X28571428Y-43533333D01*
X28476190Y-43580952D01*
X28285714Y-43580952D01*
X28190476Y-43628571D01*
X28142857Y-43676190D01*
X28095238Y-43771428D01*
X28095238Y-43961904D01*
X28142857Y-44057142D01*
X28190476Y-44104761D01*
X28285714Y-44152380D01*
X28476190Y-44152380D01*
X28571428Y-44104761D01*
X28619047Y-44057142D01*
X28666666Y-43961904D01*
X28666666Y-43771428D01*
X28619047Y-43676190D01*
X28571428Y-43628571D01*
X28476190Y-43580952D01*
X29047619Y-43866666D02*
X29523809Y-43866666D01*
X28952380Y-44152380D02*
X29285714Y-43152380D01*
X29619047Y-44152380D01*
X29809523Y-43152380D02*
X30380952Y-43152380D01*
X30095238Y-44152380D02*
X30095238Y-43152380D01*
X31142857Y-43485714D02*
X31142857Y-44152380D01*
X30904761Y-43104761D02*
X30666666Y-43819047D01*
X31285714Y-43819047D01*
X31571428Y-43152380D02*
X32190476Y-43152380D01*
X31857142Y-43533333D01*
X32000000Y-43533333D01*
X32095238Y-43580952D01*
X32142857Y-43628571D01*
X32190476Y-43723809D01*
X32190476Y-43961904D01*
X32142857Y-44057142D01*
X32095238Y-44104761D01*
X32000000Y-44152380D01*
X31714285Y-44152380D01*
X31619047Y-44104761D01*
X31571428Y-44057142D01*
X32571428Y-43866666D02*
X33047619Y-43866666D01*
X32476190Y-44152380D02*
X32809523Y-43152380D01*
X33142857Y-44152380D01*
X33666666Y-43152380D02*
X33761904Y-43152380D01*
X33857142Y-43200000D01*
X33904761Y-43247619D01*
X33952380Y-43342857D01*
X34000000Y-43533333D01*
X34000000Y-43771428D01*
X33952380Y-43961904D01*
X33904761Y-44057142D01*
X33857142Y-44104761D01*
X33761904Y-44152380D01*
X33666666Y-44152380D01*
X33571428Y-44104761D01*
X33523809Y-44057142D01*
X33476190Y-43961904D01*
X33428571Y-43771428D01*
X33428571Y-43533333D01*
X33476190Y-43342857D01*
X33523809Y-43247619D01*
X33571428Y-43200000D01*
X33666666Y-43152380D01*
X34619047Y-43152380D02*
X34714285Y-43152380D01*
X34809523Y-43200000D01*
X34857142Y-43247619D01*
X34904761Y-43342857D01*
X34952380Y-43533333D01*
X34952380Y-43771428D01*
X34904761Y-43961904D01*
X34857142Y-44057142D01*
X34809523Y-44104761D01*
X34714285Y-44152380D01*
X34619047Y-44152380D01*
X34523809Y-44104761D01*
X34476190Y-44057142D01*
X34428571Y-43961904D01*
X34380952Y-43771428D01*
X34380952Y-43533333D01*
X34428571Y-43342857D01*
X34476190Y-43247619D01*
X34523809Y-43200000D01*
X34619047Y-43152380D01*
X35333333Y-43247619D02*
X35380952Y-43200000D01*
X35476190Y-43152380D01*
X35714285Y-43152380D01*
X35809523Y-43200000D01*
X35857142Y-43247619D01*
X35904761Y-43342857D01*
X35904761Y-43438095D01*
X35857142Y-43580952D01*
X35285714Y-44152380D01*
X35904761Y-44152380D01*
X36523809Y-43152380D02*
X36619047Y-43152380D01*
X36714285Y-43200000D01*
X36761904Y-43247619D01*
X36809523Y-43342857D01*
X36857142Y-43533333D01*
X36857142Y-43771428D01*
X36809523Y-43961904D01*
X36761904Y-44057142D01*
X36714285Y-44104761D01*
X36619047Y-44152380D01*
X36523809Y-44152380D01*
X36428571Y-44104761D01*
X36380952Y-44057142D01*
X36333333Y-43961904D01*
X36285714Y-43771428D01*
X36285714Y-43533333D01*
X36333333Y-43342857D01*
X36380952Y-43247619D01*
X36428571Y-43200000D01*
X36523809Y-43152380D01*
X37285714Y-43628571D02*
X37619047Y-43628571D01*
X37761904Y-44152380D02*
X37285714Y-44152380D01*
X37285714Y-43152380D01*
X37761904Y-43152380D01*
%TO.C,J2*%
X89066666Y-39252380D02*
X89066666Y-39966666D01*
X89019047Y-40109523D01*
X88923809Y-40204761D01*
X88780952Y-40252380D01*
X88685714Y-40252380D01*
X89495238Y-39347619D02*
X89542857Y-39300000D01*
X89638095Y-39252380D01*
X89876190Y-39252380D01*
X89971428Y-39300000D01*
X90019047Y-39347619D01*
X90066666Y-39442857D01*
X90066666Y-39538095D01*
X90019047Y-39680952D01*
X89447619Y-40252380D01*
X90066666Y-40252380D01*
%TO.C,C1*%
X42957142Y-42666666D02*
X43004761Y-42714285D01*
X43052380Y-42857142D01*
X43052380Y-42952380D01*
X43004761Y-43095238D01*
X42909523Y-43190476D01*
X42814285Y-43238095D01*
X42623809Y-43285714D01*
X42480952Y-43285714D01*
X42290476Y-43238095D01*
X42195238Y-43190476D01*
X42100000Y-43095238D01*
X42052380Y-42952380D01*
X42052380Y-42857142D01*
X42100000Y-42714285D01*
X42147619Y-42666666D01*
X43052380Y-41714285D02*
X43052380Y-42285714D01*
X43052380Y-42000000D02*
X42052380Y-42000000D01*
X42195238Y-42095238D01*
X42290476Y-42190476D01*
X42338095Y-42285714D01*
X43452380Y-41809523D02*
X43452380Y-41190476D01*
X43833333Y-41523809D01*
X43833333Y-41380952D01*
X43880952Y-41285714D01*
X43928571Y-41238095D01*
X44023809Y-41190476D01*
X44261904Y-41190476D01*
X44357142Y-41238095D01*
X44404761Y-41285714D01*
X44452380Y-41380952D01*
X44452380Y-41666666D01*
X44404761Y-41761904D01*
X44357142Y-41809523D01*
X44452380Y-40761904D02*
X43452380Y-40761904D01*
X43452380Y-40380952D01*
X43500000Y-40285714D01*
X43547619Y-40238095D01*
X43642857Y-40190476D01*
X43785714Y-40190476D01*
X43880952Y-40238095D01*
X43928571Y-40285714D01*
X43976190Y-40380952D01*
X43976190Y-40761904D01*
X44452380Y-39714285D02*
X44452380Y-39523809D01*
X44404761Y-39428571D01*
X44357142Y-39380952D01*
X44214285Y-39285714D01*
X44023809Y-39238095D01*
X43642857Y-39238095D01*
X43547619Y-39285714D01*
X43500000Y-39333333D01*
X43452380Y-39428571D01*
X43452380Y-39619047D01*
X43500000Y-39714285D01*
X43547619Y-39761904D01*
X43642857Y-39809523D01*
X43880952Y-39809523D01*
X43976190Y-39761904D01*
X44023809Y-39714285D01*
X44071428Y-39619047D01*
X44071428Y-39428571D01*
X44023809Y-39333333D01*
X43976190Y-39285714D01*
X43880952Y-39238095D01*
%TO.C,C2*%
X39157142Y-42666666D02*
X39204761Y-42714285D01*
X39252380Y-42857142D01*
X39252380Y-42952380D01*
X39204761Y-43095238D01*
X39109523Y-43190476D01*
X39014285Y-43238095D01*
X38823809Y-43285714D01*
X38680952Y-43285714D01*
X38490476Y-43238095D01*
X38395238Y-43190476D01*
X38300000Y-43095238D01*
X38252380Y-42952380D01*
X38252380Y-42857142D01*
X38300000Y-42714285D01*
X38347619Y-42666666D01*
X38347619Y-42285714D02*
X38300000Y-42238095D01*
X38252380Y-42142857D01*
X38252380Y-41904761D01*
X38300000Y-41809523D01*
X38347619Y-41761904D01*
X38442857Y-41714285D01*
X38538095Y-41714285D01*
X38680952Y-41761904D01*
X39252380Y-42333333D01*
X39252380Y-41714285D01*
X39552380Y-41523809D02*
X39552380Y-41428571D01*
X39600000Y-41333333D01*
X39647619Y-41285714D01*
X39742857Y-41238095D01*
X39933333Y-41190476D01*
X40171428Y-41190476D01*
X40361904Y-41238095D01*
X40457142Y-41285714D01*
X40504761Y-41333333D01*
X40552380Y-41428571D01*
X40552380Y-41523809D01*
X40504761Y-41619047D01*
X40457142Y-41666666D01*
X40361904Y-41714285D01*
X40171428Y-41761904D01*
X39933333Y-41761904D01*
X39742857Y-41714285D01*
X39647619Y-41666666D01*
X39600000Y-41619047D01*
X39552380Y-41523809D01*
X40552380Y-40761904D02*
X39552380Y-40761904D01*
X39552380Y-40380952D01*
X39600000Y-40285714D01*
X39647619Y-40238095D01*
X39742857Y-40190476D01*
X39885714Y-40190476D01*
X39980952Y-40238095D01*
X40028571Y-40285714D01*
X40076190Y-40380952D01*
X40076190Y-40761904D01*
X39552380Y-39857142D02*
X39552380Y-39238095D01*
X39933333Y-39571428D01*
X39933333Y-39428571D01*
X39980952Y-39333333D01*
X40028571Y-39285714D01*
X40123809Y-39238095D01*
X40361904Y-39238095D01*
X40457142Y-39285714D01*
X40504761Y-39333333D01*
X40552380Y-39428571D01*
X40552380Y-39714285D01*
X40504761Y-39809523D01*
X40457142Y-39857142D01*
%TO.C,C3*%
X42533333Y-53057142D02*
X42485714Y-53104761D01*
X42342857Y-53152380D01*
X42247619Y-53152380D01*
X42104761Y-53104761D01*
X42009523Y-53009523D01*
X41961904Y-52914285D01*
X41914285Y-52723809D01*
X41914285Y-52580952D01*
X41961904Y-52390476D01*
X42009523Y-52295238D01*
X42104761Y-52200000D01*
X42247619Y-52152380D01*
X42342857Y-52152380D01*
X42485714Y-52200000D01*
X42533333Y-52247619D01*
X42866666Y-52152380D02*
X43485714Y-52152380D01*
X43152380Y-52533333D01*
X43295238Y-52533333D01*
X43390476Y-52580952D01*
X43438095Y-52628571D01*
X43485714Y-52723809D01*
X43485714Y-52961904D01*
X43438095Y-53057142D01*
X43390476Y-53104761D01*
X43295238Y-53152380D01*
X43009523Y-53152380D01*
X42914285Y-53104761D01*
X42866666Y-53057142D01*
X44009523Y-55952380D02*
X43438095Y-55952380D01*
X43723809Y-55952380D02*
X43723809Y-54952380D01*
X43628571Y-55095238D01*
X43533333Y-55190476D01*
X43438095Y-55238095D01*
X44628571Y-54952380D02*
X44723809Y-54952380D01*
X44819047Y-55000000D01*
X44866666Y-55047619D01*
X44914285Y-55142857D01*
X44961904Y-55333333D01*
X44961904Y-55571428D01*
X44914285Y-55761904D01*
X44866666Y-55857142D01*
X44819047Y-55904761D01*
X44723809Y-55952380D01*
X44628571Y-55952380D01*
X44533333Y-55904761D01*
X44485714Y-55857142D01*
X44438095Y-55761904D01*
X44390476Y-55571428D01*
X44390476Y-55333333D01*
X44438095Y-55142857D01*
X44485714Y-55047619D01*
X44533333Y-55000000D01*
X44628571Y-54952380D01*
X45580952Y-54952380D02*
X45676190Y-54952380D01*
X45771428Y-55000000D01*
X45819047Y-55047619D01*
X45866666Y-55142857D01*
X45914285Y-55333333D01*
X45914285Y-55571428D01*
X45866666Y-55761904D01*
X45819047Y-55857142D01*
X45771428Y-55904761D01*
X45676190Y-55952380D01*
X45580952Y-55952380D01*
X45485714Y-55904761D01*
X45438095Y-55857142D01*
X45390476Y-55761904D01*
X45342857Y-55571428D01*
X45342857Y-55333333D01*
X45390476Y-55142857D01*
X45438095Y-55047619D01*
X45485714Y-55000000D01*
X45580952Y-54952380D01*
X46342857Y-55952380D02*
X46342857Y-54952380D01*
X46914285Y-55952380D01*
X46914285Y-54952380D01*
%TO.C,C4*%
X42533333Y-50557142D02*
X42485714Y-50604761D01*
X42342857Y-50652380D01*
X42247619Y-50652380D01*
X42104761Y-50604761D01*
X42009523Y-50509523D01*
X41961904Y-50414285D01*
X41914285Y-50223809D01*
X41914285Y-50080952D01*
X41961904Y-49890476D01*
X42009523Y-49795238D01*
X42104761Y-49700000D01*
X42247619Y-49652380D01*
X42342857Y-49652380D01*
X42485714Y-49700000D01*
X42533333Y-49747619D01*
X43390476Y-49985714D02*
X43390476Y-50652380D01*
X43152380Y-49604761D02*
X42914285Y-50319047D01*
X43533333Y-50319047D01*
X45024704Y-50107980D02*
X44453276Y-50107980D01*
X44738990Y-50107980D02*
X44738990Y-49107980D01*
X44643752Y-49250838D01*
X44548514Y-49346076D01*
X44453276Y-49393695D01*
X45453276Y-49107980D02*
X45453276Y-49917504D01*
X45500895Y-50012742D01*
X45548514Y-50060361D01*
X45643752Y-50107980D01*
X45834228Y-50107980D01*
X45929466Y-50060361D01*
X45977085Y-50012742D01*
X46024704Y-49917504D01*
X46024704Y-49107980D01*
%TO.C,L1*%
X41533333Y-47552380D02*
X41057142Y-47552380D01*
X41057142Y-46552380D01*
X42390476Y-47552380D02*
X41819047Y-47552380D01*
X42104761Y-47552380D02*
X42104761Y-46552380D01*
X42009523Y-46695238D01*
X41914285Y-46790476D01*
X41819047Y-46838095D01*
%TD*%
%LPC*%
D18*
%TO.C,U1*%
X50718720Y-59695080D03*
X50718720Y-57696100D03*
X50718720Y-55697120D03*
X50718720Y-53695600D03*
X50718720Y-51699160D03*
X50718720Y-49697640D03*
X50718720Y-47698660D03*
X50718720Y-45699680D03*
X65714880Y-45699680D03*
X65714880Y-47698660D03*
X65714880Y-49697640D03*
X65714880Y-51699160D03*
X65714880Y-53695600D03*
X65714880Y-55697120D03*
X65714880Y-57696100D03*
X65714880Y-59695080D03*
%TD*%
D19*
%TO.C,AE1*%
X33345000Y-45567600D03*
X26345000Y-45567600D03*
%TD*%
D20*
%TO.C,J2*%
X90770800Y-35213600D03*
X90770800Y-37753600D03*
X88230800Y-35213600D03*
X88230800Y-37753600D03*
X85690800Y-35213600D03*
X85690800Y-37753600D03*
X83150800Y-35213600D03*
X83150800Y-37753600D03*
X80610800Y-35213600D03*
X80610800Y-37753600D03*
X78070800Y-35213600D03*
X78070800Y-37753600D03*
X75530800Y-35213600D03*
X75530800Y-37753600D03*
X72990800Y-35213600D03*
X72990800Y-37753600D03*
X70450800Y-35213600D03*
X70450800Y-37753600D03*
X67910800Y-35213600D03*
X67910800Y-37753600D03*
X65370800Y-35213600D03*
X65370800Y-37753600D03*
X62830800Y-35213600D03*
X62830800Y-37753600D03*
X60290800Y-35213600D03*
X60290800Y-37753600D03*
X57750800Y-35213600D03*
X57750800Y-37753600D03*
X55210800Y-35213600D03*
X55210800Y-37753600D03*
X52670800Y-35213600D03*
X52670800Y-37753600D03*
X50130800Y-35213600D03*
X50130800Y-37753600D03*
X47590800Y-35213600D03*
X47590800Y-37753600D03*
X45050800Y-35213600D03*
X45050800Y-37753600D03*
X42510800Y-35213600D03*
D21*
X42510800Y-37753600D03*
%TD*%
D22*
%TO.C,*%
X37640800Y-59483600D03*
%TD*%
%TO.C,*%
X95640800Y-36483600D03*
%TD*%
%TO.C,*%
X95640800Y-59483600D03*
%TD*%
%TO.C,*%
X37640800Y-36483600D03*
%TD*%
D23*
%TO.C,C1*%
X43738800Y-45555600D03*
X43738800Y-44055600D03*
%TD*%
%TO.C,C2*%
X39928800Y-44055600D03*
X39928800Y-45555600D03*
%TD*%
D24*
%TO.C,C3*%
X46012800Y-53695600D03*
X44512800Y-53695600D03*
%TD*%
%TO.C,C4*%
X44512800Y-51155600D03*
X46012800Y-51155600D03*
%TD*%
D25*
%TO.C,L1*%
X41256800Y-45567600D03*
X42156800Y-45567600D03*
%TD*%
M02*
