%TF.GenerationSoftware,KiCad,Pcbnew,(5.0.0-3-g5ebb6b6)*%
%TF.CreationDate,2019-04-29T20:19:24+01:00*%
%TF.ProjectId,RFM69HCW-868-S2,52464D36394843572D3836382D53322E,1*%
%TF.SameCoordinates,Original*%
%TF.FileFunction,Plated,1,2,PTH,Drill*%
%TF.FilePolarity,Positive*%
%FSLAX46Y46*%
G04 Gerber Fmt 4.6, Leading zero omitted, Abs format (unit mm)*
G04 Created by KiCad (PCBNEW (5.0.0-3-g5ebb6b6)) date Monday, 29 April 2019 at 20:19:24*
%MOMM*%
%LPD*%
G01*
G04 APERTURE LIST*
%TA.AperFunction,ViaDrill*%
%ADD10C,0.400000*%
%TD*%
%TA.AperFunction,ComponentDrill*%
%ADD11C,1.000000*%
%TD*%
G04 APERTURE END LIST*
D10*
X38400000Y-43900000D03*
X38800000Y-47300000D03*
X40000000Y-42600000D03*
X40600000Y-47300000D03*
X41800000Y-44100000D03*
X42976800Y-51155600D03*
X42976800Y-53695600D03*
X43000000Y-47300000D03*
X43800000Y-42600000D03*
X44300000Y-47300000D03*
X45700000Y-43800000D03*
X45900000Y-47300000D03*
X47400000Y-43800000D03*
X47500000Y-47300000D03*
X61518800Y-41757600D03*
X65700000Y-44000000D03*
X68100000Y-45700000D03*
X68200000Y-59600000D03*
X71932800Y-42011600D03*
X73456800Y-41503600D03*
X79700000Y-41700000D03*
X89700000Y-42000000D03*
D11*
%TO.C,J2*%
X42510800Y-35213600D03*
X42510800Y-37753600D03*
X45050800Y-35213600D03*
X45050800Y-37753600D03*
X47590800Y-35213600D03*
X47590800Y-37753600D03*
X50130800Y-35213600D03*
X50130800Y-37753600D03*
X52670800Y-35213600D03*
X52670800Y-37753600D03*
X55210800Y-35213600D03*
X55210800Y-37753600D03*
X57750800Y-35213600D03*
X57750800Y-37753600D03*
X60290800Y-35213600D03*
X60290800Y-37753600D03*
X62830800Y-35213600D03*
X62830800Y-37753600D03*
X65370800Y-35213600D03*
X65370800Y-37753600D03*
X67910800Y-35213600D03*
X67910800Y-37753600D03*
X70450800Y-35213600D03*
X70450800Y-37753600D03*
X72990800Y-35213600D03*
X72990800Y-37753600D03*
X75530800Y-35213600D03*
X75530800Y-37753600D03*
X78070800Y-35213600D03*
X78070800Y-37753600D03*
X80610800Y-35213600D03*
X80610800Y-37753600D03*
X83150800Y-35213600D03*
X83150800Y-37753600D03*
X85690800Y-35213600D03*
X85690800Y-37753600D03*
X88230800Y-35213600D03*
X88230800Y-37753600D03*
X90770800Y-35213600D03*
X90770800Y-37753600D03*
M02*
